<svg width="24" height="24" viewBox="0 0 24 24" fill="none" xmlns="http://www.w3.org/2000/svg">
<path fill-rule="evenodd" clip-rule="evenodd" d="M15.4267 2.3696L18.2091 6.625H22.5C22.7228 6.625 22.8307 6.69489 22.8804 6.74461C22.9301 6.79433 23 6.90225 23 7.125V20.625C23 20.8478 22.9301 20.9557 22.8804 21.0054C22.8307 21.0551 22.7228 21.125 22.5 21.125H1.5C1.27725 21.125 1.16933 21.0551 1.11961 21.0054C1.06989 20.9557 1 20.8478 1 20.625V7.125C1 6.90225 1.06989 6.79433 1.11961 6.74461C1.16933 6.69489 1.27725 6.625 1.5 6.625H5.79094L8.57329 2.3696C8.65263 2.29887 8.73911 2.23593 8.82258 2.1904C8.93381 2.12973 8.99283 2.125 9 2.125H15C15.0072 2.125 15.0662 2.12973 15.1774 2.19039C15.2579 2.23431 15.3413 2.29446 15.4183 2.36218C15.4211 2.36465 15.4239 2.36712 15.4267 2.3696ZM7.79997 1.725C7.83406 1.69091 7.87008 1.65682 7.90782 1.62318C7.92341 1.60928 7.93937 1.59539 7.95568 1.58155C8.06984 1.48467 8.20121 1.39024 8.34373 1.3125C8.55158 1.19913 8.77633 1.125 9 1.125H15C15.2237 1.125 15.4484 1.19913 15.6562 1.3125C15.8191 1.40135 15.9674 1.51199 16.0922 1.62319C16.1299 1.65683 16.1659 1.69092 16.2 1.725L18.75 5.625H22.5C22.9546 5.625 23.3279 5.77788 23.5875 6.0375C23.8471 6.29713 24 6.67043 24 7.125V20.625C24 21.0796 23.8471 21.4529 23.5875 21.7125C23.3279 21.9721 22.9546 22.125 22.5 22.125H1.5C1.04543 22.125 0.672126 21.9721 0.412499 21.7125C0.152876 21.4529 0 21.0796 0 20.625V7.125C0 6.675 0.150001 6.3 0.4125 6.0375C0.547712 5.90229 0.713759 5.79603 0.906062 5.72524C1.05992 5.6686 1.2306 5.63467 1.41573 5.62678C1.4435 5.6256 1.47159 5.625 1.5 5.625H5.25L7.79997 1.725ZM7.5 13.125C7.5 15.675 9.45 17.625 12 17.625C14.55 17.625 16.5 15.675 16.5 13.125C16.5 10.575 14.55 8.625 12 8.625C9.45 8.625 7.5 10.575 7.5 13.125ZM12 18.625C8.89771 18.625 6.5 16.2273 6.5 13.125C6.5 10.0227 8.89771 7.625 12 7.625C15.1023 7.625 17.5 10.0227 17.5 13.125C17.5 16.2273 15.1023 18.625 12 18.625Z" fill="black"/>
</svg>
