<svg width="33" height="28" viewBox="0 0 33 28" fill="none" xmlns="http://www.w3.org/2000/svg">
<path d="M32.9078 4.41034C30.6955 6.14827 28.9749 7.91724 27.7458 9.71724C26.5782 11.4552 25.9944 13.1 25.9944 14.6517C26.2402 14.5276 26.5475 14.4655 26.9162 14.4655C27.3464 14.4034 27.7151 14.3724 28.0223 14.3724C29.4358 14.3724 30.6034 14.9621 31.5251 16.1414C32.5084 17.2586 33 18.6552 33 20.331C33 22.3793 32.324 24.0862 30.9721 25.4517C29.6201 26.8172 27.9302 27.5 25.9022 27.5C23.7514 27.5 22.0615 26.7241 20.8324 25.1724C19.6033 23.5586 18.9888 21.4172 18.9888 18.7483C18.9888 15.5828 19.9413 12.4483 21.8464 9.34483C23.7514 6.24138 26.5475 3.2931 30.2346 0.5L32.9078 4.41034ZM13.919 4.41034C11.7067 6.14827 9.98603 7.91724 8.75698 9.71724C7.58939 11.4552 7.00559 13.1 7.00559 14.6517C7.2514 14.5276 7.55866 14.4655 7.92737 14.4655C8.35754 14.4034 8.72626 14.3724 9.03352 14.3724C10.4469 14.3724 11.6145 14.9621 12.5363 16.1414C13.5196 17.2586 14.0112 18.6552 14.0112 20.331C14.0112 22.3793 13.3352 24.0862 11.9832 25.4517C10.6313 26.8172 8.94134 27.5 6.91341 27.5C4.76257 27.5 3.07263 26.7241 1.84358 25.1724C0.614525 23.5586 0 21.4172 0 18.7483C0 15.5828 0.952514 12.4483 2.85754 9.34483C4.76257 6.24138 7.55866 3.2931 11.2458 0.5L13.919 4.41034Z" fill="#8C3414"/>
</svg>
