<svg width="30" height="30" viewBox="0 0 30 30" fill="none" xmlns="http://www.w3.org/2000/svg">
<circle opacity="0.1" cx="15" cy="15" r="15" fill="#F6F6F6"/>
<path d="M22.9 10.6H20.1V8H19.5V10.6H16.8V11.4H19.5V14H20.1V11.4H22.9V10.6Z" fill="#8C3414"/>
<path d="M13.8 15.7C13.4 15.5 12.7 14.8 12.7 14.4C12.7 14 12.8 13.7 13.5 13.2C14.2 12.7 14.7 12 14.7 11.1C14.7 10 14.2 9 13.4 8.7H14.7L15.6 8H11.4C9.5 8 7.8 9.4 7.8 11.1C7.8 12.8 9.1 14.1 11 14.1H11.4C11.2 14.3 11.2 14.5 11.2 14.8C11.2 15.3 11.5 15.6 11.8 16H11.1C8.8 16 7 17.5 7 19C7 20.5 9 21.5 11.3 21.5C13.9 21.5 15.4 20 15.4 18.5C15.3 17.2 14.9 16.5 13.8 15.7ZM11.6 13.6C10.5 13.6 9.5 12.4 9.3 11C9.1 9.6 9.8 8.5 10.9 8.5C12 8.5 13 9.7 13.2 11.1C13.4 12.5 12.7 13.7 11.6 13.6ZM11.2 20.8C9.6 20.8 8.4 19.8 8.4 18.6C8.4 17.4 9.8 16.4 11.4 16.4C11.8 16.4 12.1 16.5 12.4 16.6C13.3 17.2 13.9 17.5 14.1 18.2C14.1 18.3 14.2 18.5 14.2 18.6C14.2 19.8 13.4 20.8 11.2 20.8Z" fill="#8C3414"/>
</svg>
