<svg width="203" height="80" viewBox="0 0 203 80" fill="none" xmlns="http://www.w3.org/2000/svg">
<g clip-path="url(#clip0_19_1401)">
<path fill-rule="evenodd" clip-rule="evenodd" d="M92.4559 1.07727C90.4657 2.16991 87.6587 3.49692 85.0601 4.57411L82.6931 5.55587L82.6917 6.81271L82.6896 8.07027H81.3507C79.7759 8.07027 79.4496 8.17764 79.3457 8.73062C79.2019 9.49553 79.4306 9.58746 81.4868 9.58957L82.6812 9.59097L82.717 17.8071C82.7577 27.0317 82.738 26.8057 83.6777 28.7138C86.1949 33.824 94.6349 33.7531 98.8138 28.5868C99.9871 27.1362 100.095 25.0296 98.9963 25.0296C98.5212 25.0296 98.3092 25.2822 97.6608 26.6211C96.8664 28.2633 95.3703 29.6211 94.6552 29.3496C93.8552 29.0457 93.8026 28.3706 93.8019 18.3334L93.8012 9.59097L95.7015 9.57694C98.2033 9.55869 98.2938 9.53764 98.3408 8.96501C98.3963 8.29483 98.1366 8.07027 97.31 8.07027C96.9443 8.07027 96.0054 8.03589 95.2243 7.99378L93.804 7.91729L93.7731 4.14394L93.7422 0.370605L92.4559 1.07727ZM43.0103 0.643588C40.3696 1.31096 39.3408 3.99165 41.0643 5.71586C42.0538 6.70534 45.2889 7.12571 46.6468 6.44149C46.7542 6.38745 46.9998 6.27095 47.1928 6.18323C49.0671 5.3292 49.4384 2.70745 47.8685 1.41271C46.8706 0.589554 44.6285 0.234465 43.0103 0.643588ZM102.69 16.3215C102.69 33.5447 102.633 32.398 103.493 32.398C104.376 32.398 104.327 32.838 104.327 24.8113V17.6527L105.468 18.2611C113.504 22.5489 121.313 27.0633 127.644 31.0808C129.308 32.1362 130.742 33.0275 130.831 33.0618C130.97 33.1152 130.994 30.8162 130.994 17.6373C130.994 0.538322 131.049 1.70744 130.245 1.70744C129.368 1.70744 129.419 1.26534 129.383 9.24431C129.365 13.1657 129.33 16.3741 129.304 16.3741C129.279 16.3741 128.846 16.1187 128.342 15.8071C127.02 14.9875 123.706 13.0661 119.942 10.9376C113.664 7.38746 107.213 3.63026 104.737 2.08149C103.298 1.18254 102.872 0.935521 102.756 0.935521C102.72 0.935521 102.69 7.85975 102.69 16.3215ZM35.4384 1.73342C34.9345 1.8064 34.7899 2.03938 32.6461 6.24499C30.0924 11.2534 25.8573 19.1727 25.731 19.1769C25.6819 19.1783 23.4882 15.3776 22.7626 14.0352C22.4208 13.4022 19.9956 9.09904 19.1647 7.65203C18.7556 6.93903 17.8945 5.40219 17.251 4.23517L16.0819 2.11447L8.38012 2.08078C4.14504 2.06183 0.660828 2.07657 0.638372 2.11236C0.616617 2.14815 0.902227 2.70113 1.27346 3.34043C4.2117 8.4022 4.88399 9.5601 5.10153 9.92922C5.23767 10.1615 6.15276 11.7454 7.1345 13.4506C8.11626 15.1552 9.35275 17.2864 9.88327 18.1875C10.4138 19.0878 11.3605 20.7194 11.9871 21.8127C12.6138 22.9068 13.637 24.6696 14.2608 25.7313C14.8847 26.7924 16.2012 29.0555 17.1878 30.7601C18.1738 32.4647 19.0433 33.9285 19.1198 34.012C19.3254 34.2359 19.1436 34.5334 22.2826 28.8303C22.8489 27.8015 23.4166 26.7748 23.5436 26.5496C23.6699 26.3243 23.9303 25.8506 24.1219 25.4969C24.3127 25.1433 24.5085 24.8015 24.557 24.7369C24.6047 24.6724 24.8012 24.3306 24.992 23.9769C25.1836 23.6226 26.5247 21.2015 27.9731 18.5966C36.672 2.94464 36.6082 3.06394 36.6082 2.60078C36.6082 1.96008 36.1619 1.62956 35.4384 1.73342ZM178.363 7.54606C177.859 7.65062 176.915 8.05413 175.574 8.73553C174.458 9.30255 173.498 9.78396 173.439 9.80501C173.381 9.82676 173.333 9.44501 173.333 8.95729V8.07027H167.719H162.105V20.0001V31.9299H167.718H173.332L173.362 21.8436L173.391 11.7573L174.152 11.252C174.867 10.7755 174.949 10.7496 175.546 10.805C176.775 10.9201 176.658 9.84361 176.725 21.6113L176.784 31.8717L182.31 31.9018L187.836 31.932V21.7054V11.4787L188.555 11.0422C189.792 10.2906 190.709 10.3657 191.196 11.2583C191.389 11.6106 191.408 12.3601 191.462 21.7545L191.52 31.8717L197.053 31.9018L202.586 31.932L202.545 22.8373C202.5 12.8387 202.488 12.645 201.764 11.0604C199.855 6.88078 193.136 6.21622 187.485 9.64922L186.799 10.0661L186.225 9.71308C183.434 7.99589 180.319 7.13694 178.363 7.54606ZM63.1871 7.60992C57.8706 8.30115 53.4166 12.8401 52.7535 18.2429C51.604 27.5945 60.0671 34.6254 69.0054 31.7461C73.6117 30.2626 78.0735 26.064 76.5878 24.6113C76.1015 24.1362 75.9149 24.2352 74.2026 25.8696C71.2868 28.6534 71.0608 28.8562 70.4089 29.2668C68.9647 30.1769 67.2271 30.6822 65.4966 30.6934C63.0229 30.7103 62.9296 30.4836 62.9261 24.4155L62.924 20.7018H70.1928H77.4622L77.3935 19.5033C76.9485 11.7145 70.8552 6.61342 63.1871 7.60992ZM145.029 7.79939C140.634 8.05203 136.837 9.8029 136.483 11.7418C136.334 12.5552 136.756 13.2162 137.423 13.2162C137.566 13.2162 138.373 12.6275 139.35 11.8106C141.789 9.77062 142.698 9.41062 145.38 9.42185C147.79 9.43238 148.473 9.80501 148.76 11.2647C148.906 12.0071 148.914 12.2247 148.9 15.1047L148.889 17.4022L148.007 17.0597C140.943 14.3166 134.223 17.3068 133.631 23.4562C132.914 30.8906 141.043 35.0394 147.85 30.7131L148.83 30.0899L148.86 30.7468C148.877 31.1082 148.918 31.5222 148.95 31.6668L149.01 31.9299H154.505C158.578 31.9299 160 31.8948 160 31.7952C160 31.7208 159.855 31.3657 159.678 31.0057L159.356 30.351L159.285 22.6317C159.201 13.5601 159.123 12.8057 158.106 11.2001C156.574 8.78255 151.391 7.43448 145.029 7.79939ZM38.9471 20.1173V32.0471H44.5612H50.1752V20.1173V8.18746H44.5612H38.9471V20.1173ZM67.2959 9.29694C68.1991 9.73132 68.2398 9.95869 68.2812 14.784C68.3106 18.1468 68.2868 19.0029 68.1647 19.0808C67.9619 19.2092 63.2615 19.2064 63.058 19.0773C62.8103 18.9208 62.9191 10.6373 63.1766 10.0534C63.6117 9.06676 65.9338 8.6408 67.2959 9.29694ZM146.293 18.0233C146.595 18.0941 147.302 18.3657 147.863 18.6268L148.883 19.1004L148.916 23.6071L148.947 28.1138L148.106 28.7818C145.698 30.6955 143.78 30.6247 143.565 28.6148C143.386 26.9496 143.558 19.1573 143.782 18.7376C144.193 17.9678 145.034 17.7285 146.293 18.0233Z" fill="#E40C14"/>
<path fill-rule="evenodd" clip-rule="evenodd" d="M2.68974 37.4266V38.3628H102.456H202.222V37.4266V36.4912H102.456H2.68974V37.4266ZM94.1227 42.3684C87.4041 53.3852 86.2301 55.0828 84.7073 55.9852C84.1978 56.287 84.0504 56.6042 84.4153 56.6133C84.6153 56.6189 89.6231 56.6168 89.9122 56.6112C90.3122 56.6035 89.9796 56.2596 89.3494 56.0302C87.7115 55.433 87.8118 54.3242 89.7915 51.1691L90.7017 49.7172L93.9753 49.7417L97.2497 49.7663L98.2104 51.4035C100.33 55.0147 100.494 55.7158 99.3367 56.1993C98.9908 56.3438 98.8013 56.6028 99.035 56.6112C99.1908 56.6168 106.018 56.6189 106.17 56.6133C106.488 56.6021 106.289 56.2484 105.831 56.0154C104.742 55.4589 104.46 55.0765 100.057 48.1874C94.5297 39.5382 95.355 40.3474 94.1227 42.3684ZM159.601 41.0575C153.011 42.0905 149.467 47.1979 151.853 52.2217C154.093 56.9403 162.754 58.6014 169.21 55.5516C170.606 54.8926 170.563 55.014 169.961 53.3916C169.462 52.0477 169.314 51.9621 168.898 52.7789C167.227 56.0645 162.738 57.2449 158.857 55.4182C153.323 52.814 154.054 43.3109 159.894 41.9347C163.477 41.0898 167.33 42.5088 168.14 44.9705C168.547 46.2133 168.7 46.1424 169.403 44.3859C170.086 42.6786 170.093 42.7438 169.185 42.3326C166.82 41.2603 162.215 40.6477 159.601 41.0575ZM33.2729 41.3852C33.1157 41.5424 33.2539 41.7438 33.5655 41.8126C33.9894 41.9052 34.3431 42.3291 34.508 42.9417C34.7353 43.7867 34.6041 54.7179 34.3606 55.1614C34.1143 55.6112 33.5304 56.1158 33.1438 56.2126C32.1873 56.4526 33.0996 56.5495 36.3157 56.5495C39.7269 56.5495 40.3501 56.4681 39.3817 56.1488C38.9206 55.9965 38.4301 55.5193 38.2532 55.0505C38.1711 54.8337 38.1283 52.6575 38.1283 48.6561V42.5909L38.4315 42.2309C38.5978 42.033 38.802 41.8716 38.8848 41.8716C39.1375 41.8716 39.3367 41.5586 39.1578 41.4435C38.9992 41.3417 33.3725 41.2863 33.2729 41.3852ZM67.4855 41.4919C67.4855 41.6245 67.6932 41.793 68.075 41.9677C68.7592 42.2814 69.2617 42.9003 69.555 43.7909C69.8701 44.7488 69.9375 51.8288 69.6287 51.5684C68.0048 50.2007 60.8055 44.0814 59.2862 42.7775L57.6841 41.4035H55.0406C52.2764 41.4035 51.8406 41.4954 52.7711 41.8807C54.1557 42.454 54.2104 42.7151 54.2104 48.7137C54.2104 54.6568 54.1031 55.1038 52.4553 56.0337C51.5213 56.5614 51.6827 56.6084 54.4364 56.6084C57.8925 56.6084 58.129 56.5474 56.9353 55.9649C55.3031 55.1691 55.2048 54.7389 55.2048 48.4154C55.2048 44.1024 55.256 43.1193 55.4582 43.6021C55.4792 43.6533 56.3655 44.4779 57.4266 45.4344C58.4883 46.3909 59.9655 47.7305 60.7094 48.4112C67.8111 54.9102 70.1971 57.0175 70.4553 57.0175H70.7017L70.7627 50.4681C70.8343 42.7165 70.8448 42.6575 72.2911 41.9249C73.4069 41.3593 73.1662 41.2863 70.1753 41.2863C67.6876 41.2863 67.4855 41.3017 67.4855 41.4919ZM133.216 41.5024C133.216 41.6428 133.385 41.7951 133.693 41.934C135.208 42.6175 135.462 43.4702 135.526 48.1165L135.576 51.7305L135.283 51.5088C134.921 51.2344 134.253 50.6666 126.224 43.8245L123.384 41.4035H120.756C117.901 41.4035 117.566 41.4919 118.626 41.9656C119.846 42.5116 119.914 42.8245 119.974 48.1424C120.043 54.2666 119.727 55.5151 117.942 56.1607C117.121 56.4568 117.585 56.5495 120.068 56.5838C123.481 56.6316 123.768 56.5579 122.573 55.9389C121.885 55.5824 121.297 54.8624 121.037 54.0561C120.942 53.7607 120.882 52.0112 120.848 48.4912L120.799 43.3572L121.257 43.7544C122.217 44.5866 124.888 46.9937 125.73 47.7845C126.213 48.2379 127.135 49.0779 127.777 49.6505C128.421 50.2224 129.763 51.4358 130.76 52.3459C136.319 57.421 136.294 57.4014 136.431 56.8126C136.464 56.6681 136.507 53.7074 136.525 50.2337C136.548 45.6224 136.596 43.8042 136.701 43.4947C136.943 42.781 137.347 42.2954 137.986 41.9516C139.108 41.3466 138.92 41.2863 135.907 41.2863C133.368 41.2863 133.216 41.2989 133.216 41.5024ZM3.275 41.5572C3.275 41.6421 3.44202 41.7874 3.64623 41.8793C4.53956 42.2814 4.50307 41.9888 4.50307 48.6926V54.6786L4.17605 55.2344C3.93746 55.64 3.69114 55.8709 3.26939 56.0849C2.76202 56.3417 2.5164 56.6042 2.77746 56.6105C5.60833 56.6765 9.99991 56.5986 9.99991 56.4821C9.99991 56.4035 9.78938 56.2681 9.53184 56.181C8.40833 55.8007 8.18166 55.0751 8.10026 51.5986L8.0392 48.9859L11.242 49.0344C15.2694 49.0961 16.4329 49.3845 17.1346 50.4968C17.6932 51.3831 17.7859 51.094 17.7508 48.5684C17.7164 46.0323 17.5957 45.6533 17.148 46.6681C16.6111 47.8849 15.7796 48.1059 11.5494 48.1607L8.07008 48.2056V45.1389V42.0723L11.4329 42.1403C16.2315 42.2379 18.3003 42.8147 19.8743 44.4926C20.6771 45.3495 20.7234 44.8898 20.0238 42.9824L19.4666 41.4617L11.3711 41.4323C4.70798 41.407 3.275 41.4295 3.275 41.5572ZM183.236 41.4814C183.073 41.6449 183.173 41.7495 183.62 41.8835C184.29 42.0842 184.666 42.5326 184.795 43.2856C184.962 44.2603 184.869 53.8709 184.688 54.4351C184.427 55.2421 184 55.7923 183.443 56.0386C182.185 56.5951 182.337 56.6049 192.234 56.6063L201.019 56.6084L201.677 54.7698C202.385 52.7937 202.395 52.4905 201.733 52.9796C198.579 55.3116 197.267 55.7123 192.749 55.7235C188.157 55.734 188.382 55.934 188.324 51.7838L188.286 49.0056L191.365 49.0077C195.659 49.0105 196.664 49.2631 197.457 50.5382C198.079 51.5389 198.128 51.4028 198.128 48.7207C198.128 46.2267 198.055 45.8596 197.669 46.4316C196.622 47.9824 196.222 48.0996 191.784 48.1593L188.304 48.2056V45.1551V42.1052L190.848 42.1081C195.889 42.1144 198.23 42.6638 199.768 44.2014C200.907 45.3396 201.033 45.0449 200.325 42.8996L199.831 41.4035H191.573C187.03 41.4035 183.279 41.4386 183.236 41.4814ZM95.369 46.7249L96.7311 48.9474L94.021 48.9789C92.5297 48.9958 91.2862 48.9866 91.2575 48.9572C91.2287 48.9284 91.7185 48.0456 92.3466 46.9958C93.5424 44.9972 93.9227 44.407 93.9753 44.4667C93.9929 44.487 94.6203 45.5031 95.369 46.7249ZM2.68974 60V60.9354H102.456H202.222V60V59.0645H102.456H2.68974V60ZM89.6434 67.4217C89.1031 67.9621 89.428 68.4028 90.082 68.0161C90.4694 67.7873 90.8027 67.9312 90.5824 68.2323C89.9627 69.0765 89.9494 69.2442 90.5038 69.2337C90.9017 69.2259 91.5789 68.4245 91.5789 67.9607C91.5789 67.1733 90.2596 66.8056 89.6434 67.4217ZM111.179 67.2365C111.034 67.4695 112.366 68.5382 112.8 68.5382C113.313 68.5382 113.314 68.5466 112.777 67.7754C112.344 67.1509 111.424 66.8407 111.179 67.2365ZM42.755 68.4119C42.108 69.2533 42.1087 69.24 42.6989 69.24C43.1115 69.24 43.275 69.1516 43.9227 68.5789C44.7831 67.8189 44.7824 67.7193 43.9178 67.7193H43.2883L42.755 68.4119ZM152.985 67.8652C152.992 68.2337 154.354 69.24 154.845 69.24C155.44 69.24 155.438 69.2133 154.785 68.3916C154.246 67.7144 152.975 67.3424 152.985 67.8652ZM184.042 68.4119C183.394 69.2533 183.396 69.24 183.985 69.24C184.398 69.24 184.561 69.1516 185.209 68.5789C186.069 67.8189 186.069 67.7193 185.205 67.7193H184.575L184.042 68.4119ZM63.3557 68.4716C62.6855 69.2477 62.6862 69.24 63.3248 69.24C63.7374 69.24 63.889 69.1803 64.0729 68.9474C64.3592 68.5831 64.4153 68.5838 64.8027 68.9551C65.0582 69.1993 65.209 69.2477 65.6181 69.2182L66.1199 69.181L65.5045 68.5088C64.6315 67.5551 64.1536 67.5473 63.3557 68.4716ZM109.874 68.5088L109.324 69.181L109.827 69.2182C110.259 69.2498 110.368 69.2084 110.603 68.9256L110.876 68.5965L111.163 68.9179C111.387 69.1684 111.555 69.24 111.924 69.24C112.515 69.24 112.514 69.2252 111.862 68.4631C111.086 67.5537 110.645 67.5635 109.874 68.5088ZM93.3634 68.4C93.2785 68.454 93.2301 68.6849 93.2462 68.9537L93.275 69.4154L92.6315 69.4737L91.988 69.5319L91.9297 72.3389C91.856 75.8645 91.6469 76.374 90.2708 76.374C88.741 76.374 88.5087 75.8428 88.4427 72.1873L88.3936 69.4617L87.8518 69.4968L87.3101 69.5319L87.3143 72.2807C87.3213 76.5403 87.788 77.3705 90.1753 77.367C92.5332 77.3635 93.0996 76.4259 93.0996 72.5221V70.3186L93.5052 70.2421C94.1459 70.1221 94.4897 69.2505 94.1978 68.4891C94.1234 68.2947 93.6146 68.24 93.3634 68.4ZM140.213 68.3831C140.049 68.4266 140.037 68.4919 140.137 68.7803C140.326 69.3193 140.205 69.4568 139.509 69.4968L138.889 69.5319L138.83 72.3389C138.757 75.8645 138.547 76.374 137.171 76.374C135.641 76.374 135.409 75.8428 135.343 72.1873L135.294 69.4617L134.752 69.4968L134.21 69.5319L134.177 71.8716C134.111 76.4119 134.825 77.6316 137.413 77.3972C139.478 77.2098 140 76.2267 140 72.5221V70.3186L140.398 70.2435C141.038 70.1235 141.327 69.4309 141.096 68.567C141.026 68.3059 140.734 68.2456 140.213 68.3831ZM28.7136 69.4877C25.1108 70.3179 24.4441 75.6175 27.7578 77.08C28.7045 77.4975 30.7803 77.5031 31.4413 77.0898C31.7606 76.8898 31.4834 76.1059 31.1255 76.1972C28.5192 76.8645 26.9599 75.8358 26.9599 73.4505C26.9599 71.1642 28.6953 69.8477 30.7585 70.5684C31.369 70.7817 31.4539 70.7298 31.4918 70.1207C31.5332 69.461 30.1746 69.1516 28.7136 69.4877ZM50.8189 69.4449C50.6259 69.4624 50.2967 69.5052 50.0876 69.5389L49.7073 69.6014V71.2337V72.8652H49.2399H48.7718V73.3333V73.8014H49.2399H49.7073V75.5459V77.2912L50.4806 77.374C54.1634 77.7684 56.2743 76.1277 56.1164 72.9937C56.0132 70.9438 54.9767 69.8014 52.9213 69.473C52.2006 69.3579 51.8125 69.353 50.8189 69.4449ZM100.76 69.4266C100.567 69.454 100.239 69.5052 100.029 69.5389L99.649 69.6014V71.2337V72.8652H99.181H98.7136V73.3333V73.8014H99.181H99.649V75.5459V77.2912L100.427 77.3747C103.945 77.7516 105.947 76.36 106.06 73.4596C106.173 70.5635 104.057 68.9544 100.76 69.4266ZM169.787 69.5326C166.339 70.48 165.844 75.6582 169.064 77.0912C169.789 77.4133 171.241 77.5017 172.163 77.2793C172.806 77.1249 172.807 77.1235 172.793 76.687C172.775 76.1179 172.756 76.1059 172.121 76.2652C169.963 76.8091 168.322 75.7228 168.206 73.673C168.075 71.3495 169.761 69.981 172.03 70.5698C172.702 70.7438 172.935 70.5481 172.841 69.8905C172.774 69.4203 170.967 69.2084 169.787 69.5326ZM0.664471 69.5495C0.620962 69.5937 0.584473 69.8316 0.584473 70.0779V70.5263H1.7543H2.92412V73.9179V77.3102H3.50868H4.09325V73.9179V70.5263H5.27009H6.44623L6.41044 70.0295L6.37395 69.5319L3.55921 69.501C2.01114 69.4835 0.708685 69.506 0.664471 69.5495ZM8.08412 73.3333C7.36903 75.4561 6.78377 77.2224 6.78377 77.2575C6.78377 77.2933 7.05534 77.306 7.38798 77.287L7.99289 77.2512L8.36271 76.1403L8.73254 75.0295L10.0301 74.9965L11.3269 74.9635L11.7122 76.1368L12.0967 77.3102H12.715C13.4785 77.3102 13.5487 77.7459 12.1087 73.5263C10.6041 69.1193 10.7873 69.4737 10.0097 69.4737H9.38447L8.08412 73.3333ZM15.6434 69.5488C15.4539 69.6035 15.4385 69.8919 15.4385 73.4589V77.3102H16.0231H16.6083V75.7895V74.2688H17.3641C20.2097 74.2688 21.4996 71.2042 19.2174 69.8631C18.6645 69.5382 16.376 69.3368 15.6434 69.5488ZM33.8013 73.3852V77.3102H34.3859H34.9704V75.4968V73.6842H36.7248H38.4792V75.4968V77.3102H39.0659H39.6518L39.6217 73.421L39.5908 69.5319L39.035 69.4968L38.4792 69.461V71.0463V72.6316H36.7283H34.9774L34.9452 71.0821L34.9122 69.5319L34.3564 69.4968L33.8013 69.461V73.3852ZM42.3389 73.3852V77.3102H42.9255H43.5115L43.4813 73.421L43.4504 69.5319L42.8946 69.4968L42.3389 69.461V73.3852ZM58.4792 73.3916V77.3228L59.035 77.287L59.5908 77.2512V73.3916V69.5319L59.035 69.4968L58.4792 69.461V73.3916ZM62.2224 73.3895V77.3102H64.4441H66.6666V76.7838V76.2575H65.0294H63.3915V74.9705V73.6842H64.8539H66.3157V73.2161V72.7488H64.8539H63.3915V71.6372V70.5263H64.9775H66.5627L66.5269 70.0295L66.4911 69.5319L64.3564 69.5003L62.2224 69.4681V73.3895ZM68.9669 69.5516C68.9241 69.5944 68.889 71.3579 68.889 73.4695V77.3102H69.4806H70.0729L70.0364 74.3431L69.9999 71.3761L70.6722 72.501C71.042 73.1193 71.8588 74.4414 72.4876 75.4386L73.6308 77.2512L74.2441 77.287L74.8568 77.3221L74.8259 73.4274L74.795 69.5319H74.2687H73.7424V72.4084V75.2849L73.2624 74.4428C72.9985 73.9789 72.5234 73.2112 72.2069 72.7354C71.8897 72.2603 71.2953 71.3319 70.8848 70.6723L70.1396 69.4737H69.5922C69.2911 69.4737 69.0097 69.5088 68.9669 69.5516ZM79.729 69.5495C79.6848 69.5937 79.649 69.8316 79.649 70.0779V70.5263H80.8189H81.988V73.9179V77.3102H82.5732H83.1578V73.9221V70.5347L84.3564 70.501L85.5557 70.4681V70V69.5319L82.682 69.501C81.1017 69.4835 79.7732 69.506 79.729 69.5495ZM110.171 69.7151C110.064 69.9144 107.602 77.1586 107.602 77.2737C107.602 77.2933 107.883 77.3102 108.227 77.3102H108.852L109.201 76.1698L109.551 75.0295H110.877H112.203L112.573 76.1403L112.942 77.2512L113.547 77.287C113.88 77.306 114.152 77.2765 114.152 77.221C114.152 77.1319 112.058 70.8561 111.694 69.854C111.518 69.3684 110.411 69.2674 110.171 69.7151ZM115.95 69.6449C115.754 70.1572 115.971 75.3845 116.21 75.9067C117.177 78.0119 120.454 77.9488 121.445 75.8063C121.68 75.2975 121.696 75.0814 121.696 72.3979V69.5319L121.14 69.4968L120.584 69.461V71.9179C120.584 75.6547 120.356 76.2596 118.909 76.3516C117.363 76.4505 117.076 75.7579 117.076 71.9242V69.4737H116.546C116.189 69.4737 115.994 69.5291 115.95 69.6449ZM126.629 69.5495C126.586 69.5937 126.549 69.8316 126.549 70.0779V70.5263H127.719H128.889V73.9179V77.3102H129.474H130.058V73.9179V70.5263H131.235H132.411L132.375 70.0295L132.339 69.5319L129.524 69.501C127.976 69.4835 126.674 69.506 126.629 69.5495ZM145.226 69.5495C145.182 69.5937 145.146 69.8316 145.146 70.0779V70.5263H146.316H147.486V73.9179V77.3102H148.07H148.655V73.9221V70.5347L149.854 70.501L151.053 70.4681V70V69.5319L148.18 69.501C146.599 69.4835 145.27 69.506 145.226 69.5495ZM153.988 69.5726C153.87 69.7621 151.462 76.993 151.462 77.1558C151.462 77.2624 151.639 77.3102 152.038 77.3102H152.613L152.978 76.1368L153.342 74.9635L154.644 74.9965L155.946 75.0295L156.316 76.1403L156.685 77.2512L157.29 77.287C158.076 77.3326 158.12 77.6007 156.627 73.2161L155.373 69.5319L154.714 69.4975C154.352 69.4786 154.025 69.5123 153.988 69.5726ZM160.078 69.5516C160.035 69.5944 160 71.3579 160 73.4695V77.3102H160.584H161.17V73.3916V69.4737H160.662C160.384 69.4737 160.121 69.5088 160.078 69.5516ZM175.166 69.5516C175.123 69.5944 175.088 71.3579 175.088 73.4695V77.3102H175.672H176.257V75.4968V73.6842H178.012H179.766V75.4968V77.3102H180.352H180.939L180.908 73.421L180.877 69.5319L180.321 69.4968L179.766 69.461V71.0463V72.6316H178.012H176.257V71.0526V69.4737H175.75C175.471 69.4737 175.208 69.5088 175.166 69.5516ZM183.709 69.5459C183.663 69.5923 183.626 71.3579 183.626 73.4695V77.3102H184.212H184.799L184.768 73.421L184.737 69.5319L184.264 69.4975C184.005 69.4786 183.755 69.5003 183.709 69.5459ZM187.446 69.5516C187.403 69.5944 187.368 71.3579 187.368 73.4695V77.3102H187.962H188.556L188.517 74.2828L188.479 71.2554L188.835 71.9214C189.031 72.2877 189.492 73.0582 189.86 73.633C190.227 74.2077 190.888 75.2575 191.326 75.9649L192.126 77.2512L192.731 77.287L193.337 77.3221L193.306 73.4274L193.275 69.5319H192.749H192.222V72.4035V75.2751L191.571 74.1579C191.213 73.5438 190.471 72.3565 189.921 71.5207C189.373 70.6842 188.861 69.8814 188.785 69.7368C188.648 69.4758 187.659 69.3389 187.446 69.5516ZM196.023 73.3852V77.3102H196.608H197.193V75.4968V73.6842H198.947H200.702V75.4968V77.3102H201.288H201.874L201.843 73.421L201.813 69.5319L201.257 69.4968L200.702 69.461V71.0463V72.6316H198.951H197.2L197.167 71.0821L197.135 69.5319L196.579 69.4968L196.023 69.461V73.3852ZM18.4757 70.6996C19.9445 71.4596 18.9711 73.3305 17.1052 73.3326L16.6083 73.3333V71.9396C16.6083 70.9375 16.649 70.527 16.7543 70.48C17.0132 70.3628 18.0911 70.501 18.4757 70.6996ZM53.1073 70.5965C54.475 71 55.1599 72.2702 54.8834 73.887C54.5971 75.5593 53.722 76.2842 51.9038 76.3565L50.8771 76.3972V75.0996V73.8014H51.8715H52.8652V73.3333V72.8652H51.8715H50.8771V71.7045C50.8771 70.6968 50.9045 70.5361 51.082 70.4898C51.5424 70.3698 52.5108 70.421 53.1073 70.5965ZM103.471 70.741C104.88 71.4596 105.315 73.32 104.466 74.9944C103.983 75.9459 103.335 76.2919 101.918 76.3544L100.819 76.4021V75.1017V73.8014H101.871H102.924V73.3333V72.8652H101.871H100.819V71.7045C100.819 70.3502 100.766 70.4007 102.115 70.4617C102.713 70.4884 103.154 70.5796 103.471 70.741ZM10.5157 72.3663C10.7789 73.153 10.9943 73.8245 10.9943 73.8575C10.9943 73.8912 10.555 73.9179 10.0189 73.9179H9.04342L9.48833 72.6021C9.73254 71.8786 9.93464 71.1859 9.93745 71.0624C9.94377 70.7038 10.0104 70.8533 10.5157 72.3663ZM111.332 72.254C111.55 72.9438 111.754 73.6007 111.784 73.7137C111.834 73.8961 111.737 73.9179 110.877 73.9179C110.017 73.9179 109.92 73.8961 109.97 73.7137C110.182 72.9368 110.829 70.9986 110.877 70.9986C110.909 70.9986 111.114 71.5635 111.332 72.254ZM154.703 73.894C154.191 73.913 153.753 73.9088 153.73 73.8856C153.696 73.8519 154.259 72.0259 154.584 71.1109C154.619 71.0147 154.869 71.5937 155.14 72.3979L155.634 73.8596L154.703 73.894ZM9.55008 78.2252C9.15219 78.6659 9.44763 79.4154 10.0203 79.4154C10.5676 79.4154 10.8483 78.5845 10.4294 78.2049C10.1487 77.9516 9.79078 77.9593 9.55008 78.2252ZM63.936 78.2252C63.6757 78.513 63.6918 78.8968 63.9767 79.181C64.3873 79.5916 65.0294 79.3137 65.0294 78.7249C65.0294 78.1088 64.3304 77.7902 63.936 78.2252Z" fill="#8C3414"/>
<path fill-rule="evenodd" clip-rule="evenodd" d="M93.8532 4.21041C93.8532 6.30094 93.8694 7.1564 93.8883 6.11076C93.908 5.06585 93.908 3.35497 93.8883 2.31006C93.8694 1.26445 93.8532 2.11989 93.8532 4.21041ZM4.5992 2.07567C6.71078 2.09392 10.1318 2.09392 12.2013 2.07567C14.2715 2.05813 12.5437 2.04339 8.36269 2.04339C4.18095 2.04339 2.48762 2.05813 4.5992 2.07567ZM82.6167 6.84199C82.6167 7.54938 82.6364 7.82377 82.6595 7.45184C82.6827 7.07921 82.6827 6.50024 82.6588 6.1655C82.6357 5.83006 82.6167 6.13462 82.6167 6.84199ZM162.045 19.8827C162.045 26.4118 162.059 29.0834 162.076 25.8189C162.093 22.5543 162.093 17.2118 162.076 13.9473C162.059 10.6827 162.045 13.3536 162.045 19.8827ZM82.628 16.7838C82.628 20.7718 82.6427 22.4203 82.6609 20.4469C82.6785 18.4736 82.6785 15.2104 82.6609 13.1957C82.6427 11.1803 82.628 12.795 82.628 16.7838ZM93.8567 18.421C93.8567 23.3101 93.8708 25.2925 93.889 22.8273C93.9065 20.362 93.9065 16.362 93.889 13.9389C93.8708 11.515 93.8567 13.5318 93.8567 18.421ZM62.976 15.6139C62.9753 17.5438 62.9915 18.3494 63.0111 17.4048C63.0308 16.4603 63.0308 14.8813 63.0111 13.896C62.9915 12.9108 62.976 13.6841 62.976 15.6139ZM62.976 24.3276C62.976 26.3536 62.9922 27.1824 63.0111 26.1697C63.0308 25.1564 63.0308 23.4982 63.0111 22.4855C62.9922 21.4722 62.976 22.301 62.976 24.3276Z" fill="#E82018"/>
<path fill-rule="evenodd" clip-rule="evenodd" d="M93.8532 4.21041C93.8532 6.30094 93.8694 7.1564 93.8883 6.11076C93.908 5.06585 93.908 3.35497 93.8883 2.31006C93.8694 1.26445 93.8532 2.11989 93.8532 4.21041ZM4.5992 2.07567C6.71078 2.09392 10.1318 2.09392 12.2013 2.07567C14.2715 2.05813 12.5437 2.04339 8.36269 2.04339C4.18095 2.04339 2.48762 2.05813 4.5992 2.07567ZM82.6167 6.84199C82.6167 7.54938 82.6364 7.82377 82.6595 7.45184C82.6827 7.07921 82.6827 6.50024 82.6588 6.1655C82.6357 5.83006 82.6167 6.13462 82.6167 6.84199ZM162.045 19.8827C162.045 26.4118 162.059 29.0834 162.076 25.8189C162.093 22.5543 162.093 17.2118 162.076 13.9473C162.059 10.6827 162.045 13.3536 162.045 19.8827ZM82.628 16.7838C82.628 20.7718 82.6427 22.4203 82.6609 20.4469C82.6785 18.4736 82.6785 15.2104 82.6609 13.1957C82.6427 11.1803 82.628 12.795 82.628 16.7838ZM93.8567 18.421C93.8567 23.3101 93.8708 25.2925 93.889 22.8273C93.9065 20.362 93.9065 16.362 93.889 13.9389C93.8708 11.515 93.8567 13.5318 93.8567 18.421ZM62.976 15.6139C62.9753 17.5438 62.9915 18.3494 63.0111 17.4048C63.0308 16.4603 63.0308 14.8813 63.0111 13.896C62.9915 12.9108 62.976 13.6841 62.976 15.6139ZM62.976 24.3276C62.976 26.3536 62.9922 27.1824 63.0111 26.1697C63.0308 25.1564 63.0308 23.4982 63.0111 22.4855C62.9922 21.4722 62.976 22.301 62.976 24.3276Z" fill="#E82018"/>
<path fill-rule="evenodd" clip-rule="evenodd" d="M93.8532 4.21041C93.8532 6.30094 93.8694 7.1564 93.8883 6.11076C93.908 5.06585 93.908 3.35497 93.8883 2.31006C93.8694 1.26445 93.8532 2.11989 93.8532 4.21041ZM4.5992 2.07567C6.71078 2.09392 10.1318 2.09392 12.2013 2.07567C14.2715 2.05813 12.5437 2.04339 8.36269 2.04339C4.18095 2.04339 2.48762 2.05813 4.5992 2.07567ZM82.6167 6.84199C82.6167 7.54938 82.6364 7.82377 82.6595 7.45184C82.6827 7.07921 82.6827 6.50024 82.6588 6.1655C82.6357 5.83006 82.6167 6.13462 82.6167 6.84199ZM162.045 19.8827C162.045 26.4118 162.059 29.0834 162.076 25.8189C162.093 22.5543 162.093 17.2118 162.076 13.9473C162.059 10.6827 162.045 13.3536 162.045 19.8827ZM82.628 16.7838C82.628 20.7718 82.6427 22.4203 82.6609 20.4469C82.6785 18.4736 82.6785 15.2104 82.6609 13.1957C82.6427 11.1803 82.628 12.795 82.628 16.7838ZM93.8567 18.421C93.8567 23.3101 93.8708 25.2925 93.889 22.8273C93.9065 20.362 93.9065 16.362 93.889 13.9389C93.8708 11.515 93.8567 13.5318 93.8567 18.421ZM62.976 15.6139C62.9753 17.5438 62.9915 18.3494 63.0111 17.4048C63.0308 16.4603 63.0308 14.8813 63.0111 13.896C62.9915 12.9108 62.976 13.6841 62.976 15.6139ZM62.976 24.3276C62.976 26.3536 62.9922 27.1824 63.0111 26.1697C63.0308 25.1564 63.0308 23.4982 63.0111 22.4855C62.9922 21.4722 62.976 22.301 62.976 24.3276Z" fill="#E82018"/>
</g>
<defs>
<clipPath id="clip0_19_1401">
<rect width="202.807" height="80" fill="white"/>
</clipPath>
</defs>
</svg>
