<svg width="30" height="30" viewBox="0 0 30 30" fill="none" xmlns="http://www.w3.org/2000/svg">
<circle opacity="0.1" cx="15" cy="15" r="15" fill="#F6F6F6"/>
<path d="M22.75 10.3846C22.1594 10.6615 21.5688 10.7538 20.8797 10.8462C21.5688 10.4769 22.0609 9.92308 22.2578 9.18462C21.6672 9.55385 20.9781 9.73846 20.1906 9.92308C19.6 9.36923 18.7141 9 17.8281 9C16.1547 9 14.6781 10.3846 14.6781 12.0462C14.6781 12.3231 14.6781 12.5077 14.7766 12.6923C12.1188 12.6 9.65781 11.4 8.08281 9.55385C7.7875 10.0154 7.68906 10.4769 7.68906 11.1231C7.68906 12.1385 8.27969 13.0615 9.16563 13.6154C8.67344 13.6154 8.18125 13.4308 7.68906 13.2462C7.68906 14.7231 8.77187 15.9231 10.2484 16.2C9.95312 16.2923 9.65781 16.2923 9.3625 16.2923C9.16563 16.2923 8.96875 16.2923 8.77187 16.2C9.16562 17.4 10.3469 18.3231 11.8234 18.3231C10.7406 19.1538 9.3625 19.6154 7.7875 19.6154H7C8.47656 20.4462 10.15 21 11.9219 21C17.8281 21 21.0766 16.3846 21.0766 12.4154V12.0462C21.7656 11.5846 22.3562 11.0308 22.75 10.3846Z" fill="#8C3414"/>
</svg>
