<svg width="24" height="24" viewBox="0 0 24 24" fill="none" xmlns="http://www.w3.org/2000/svg">
<g clip-path="url(#clip0_25_9133)">
<path fill-rule="evenodd" clip-rule="evenodd" d="M22.9986 16.851V7.12446C22.2664 7.59161 21.0232 8.38015 19.7247 9.1953L18.193 10.1568V4.92213C18.193 4.84381 18.1209 4.75 17.9993 4.75H1.16436C1.12484 4.75 1.07611 4.76777 1.03717 4.8067C0.999476 4.84436 0.999906 4.87085 1.00004 4.87369L1.00122 4.8979V19.0779C1.00122 19.1562 1.07331 19.25 1.19497 19.25H18.0299C18.0847 19.25 18.1363 19.2281 18.1735 19.1922C18.208 19.159 18.2236 19.1212 18.2236 19.0779V13.8344L19.7588 14.8069C20.7947 15.4631 21.8041 16.0987 22.5344 16.5586C22.7056 16.6664 22.8614 16.7645 22.9986 16.851ZM19.2236 15.6516V19.0779C19.2236 19.7391 18.6727 20.25 18.0299 20.25H1.19497C0.52157 20.25 0.00121733 19.709 0.00121733 19.0779V4.92213C-0.0293916 4.29098 0.521569 3.75 1.16436 3.75H17.9993C18.6727 3.75 19.193 4.29098 19.193 4.92213V8.34836C19.5331 8.13485 19.8692 7.92334 20.193 7.71908C21.647 6.80202 22.8551 6.03136 23.0804 5.88388C23.4783 5.61339 23.9986 5.91393 23.9986 6.51503V17.4249C24.0292 17.9959 23.5395 18.4167 23.0804 18.0861C22.9991 18.0329 22.6067 17.7858 22.03 17.4227C21.5363 17.1118 20.9076 16.716 20.2236 16.2841C19.8999 16.0796 19.5637 15.8671 19.2236 15.6516Z" fill="black"/>
</g>
<defs>
<clipPath id="clip0_25_9133">
<rect width="24" height="24" fill="white"/>
</clipPath>
</defs>
</svg>
