<svg width="479" height="44" viewBox="0 0 479 44" fill="none" xmlns="http://www.w3.org/2000/svg">
<g style="mix-blend-mode:color-dodge" opacity="0.25">
<path d="M839.163 815.988H341.044C324.919 815.988 309.015 811.726 295.052 803.662C281.088 795.597 269.446 783.952 261.383 769.985L12.3236 338.497C4.2611 324.53 0 308.623 0 292.494C0 276.365 4.2611 260.458 12.3236 246.491L261.383 -184.997C269.446 -198.964 281.088 -210.609 295.052 -218.673C309.015 -226.738 324.921 -231 341.044 -231H839.161C855.286 -231 871.19 -226.738 885.153 -218.673C899.117 -210.609 910.759 -198.964 918.822 -184.997L1167.88 246.489C1175.94 260.456 1180.21 276.365 1180.21 292.492C1180.21 308.619 1175.94 324.529 1167.88 338.495L918.822 769.982C910.759 783.948 899.117 795.594 885.153 803.658C871.19 811.723 855.285 815.985 839.161 815.985L839.163 815.988ZM341.044 -228.025C309.345 -228.025 279.809 -210.968 263.958 -183.509L14.9001 247.979C-0.948625 275.437 -0.948625 309.551 14.9001 337.01L263.96 768.496C279.809 795.954 309.346 813.011 341.045 813.011H839.163C870.862 813.011 900.398 795.954 916.249 768.496L1165.31 337.01C1181.16 309.551 1181.16 275.437 1165.31 247.979L916.247 -183.508C900.398 -210.966 870.861 -228.023 839.161 -228.023H341.044V-228.025Z" fill="url(#paint0_linear_19_1296)"/>
<path d="M805.459 802.912C803.938 802.912 802.416 802.872 800.891 802.792L327.143 777.959C311.807 777.154 296.893 772.308 284.014 763.942C271.134 755.576 260.641 743.92 253.67 730.235L38.2991 307.441C31.3277 293.755 28.0667 278.412 28.8712 263.073C29.6757 247.733 34.5201 232.816 42.8845 219.934L301.261 -178.024C309.625 -190.906 321.278 -201.402 334.96 -208.375C348.642 -215.348 363.981 -218.61 379.317 -217.805L853.066 -192.972C868.402 -192.167 883.315 -187.322 896.195 -178.955C909.074 -170.589 919.567 -158.933 926.539 -145.248L1141.91 277.546C1148.88 291.231 1152.14 306.574 1151.34 321.914C1150.53 337.253 1145.69 352.171 1137.33 365.053L878.95 763.012C870.585 775.895 858.932 786.39 845.25 793.363C832.927 799.643 819.258 802.914 805.461 802.914L805.459 802.912ZM374.764 -215.091C346.225 -215.091 319.278 -200.57 303.636 -176.481L45.2603 221.48C28.818 246.805 27.1181 279.25 40.8242 306.156L256.197 728.949C269.903 755.855 297.144 773.551 327.292 775.131L801.041 799.964C831.189 801.544 860.13 786.794 876.572 761.47L1134.95 363.511C1151.39 338.185 1153.09 305.74 1139.38 278.835L924.012 -143.959C910.306 -170.865 883.065 -188.56 852.916 -190.141L379.168 -214.976C377.698 -215.053 376.226 -215.091 374.763 -215.091H374.764Z" fill="url(#paint1_linear_19_1296)"/>
<path d="M773.847 788.792C770.948 788.792 768.046 788.641 765.148 788.336L315.815 741.098C301.27 739.569 287.327 734.215 275.496 725.616C263.663 717.018 254.266 705.408 248.317 692.044L64.5513 279.2C58.6022 265.835 56.2658 251.083 57.796 236.532C59.3244 221.984 64.6765 208.038 73.2725 196.204L338.838 -169.405C347.434 -181.241 359.04 -190.64 372.402 -196.591C385.763 -202.541 400.514 -204.878 415.059 -203.349L864.392 -156.111C878.937 -154.582 892.88 -149.229 904.711 -140.631C916.544 -132.033 925.941 -120.423 931.89 -107.059L1115.66 305.787C1121.61 319.151 1123.94 333.904 1122.41 348.454C1120.88 363.003 1115.53 376.949 1106.94 388.783L841.371 754.39C832.775 766.226 821.169 775.625 807.807 781.576C797.107 786.34 785.514 788.789 773.849 788.789L773.847 788.792ZM316.098 738.414L765.431 785.652C794.026 788.659 822.287 776.073 839.186 752.806L1104.75 387.199C1121.65 363.933 1124.89 333.159 1113.19 306.888L929.424 -105.957C917.73 -132.23 892.702 -150.418 864.107 -153.424L414.776 -200.664C386.182 -203.67 357.92 -191.085 341.022 -167.818L75.4545 197.789C58.5542 221.056 55.3206 251.829 67.0146 278.1L250.782 690.946C262.476 717.218 287.504 735.406 316.098 738.412V738.414Z" fill="url(#paint2_linear_19_1296)"/>
<path d="M744.287 773.78C740.143 773.78 735.993 773.456 731.876 772.804L306.881 705.475C293.124 703.296 280.131 697.508 269.305 688.74C258.481 679.972 250.12 668.463 245.128 655.457L90.9242 253.647C85.9323 240.641 84.4451 226.493 86.6254 212.732C88.8039 198.971 94.59 185.975 103.356 175.147L374.148 -159.334C382.914 -170.16 394.421 -178.523 407.424 -183.516C420.427 -188.509 434.572 -189.997 448.33 -187.816L873.324 -120.487C887.082 -118.308 900.074 -112.521 910.9 -103.753C921.725 -94.9849 930.086 -83.4751 935.078 -70.4691L1089.28 331.34C1094.27 344.348 1095.76 358.495 1093.58 372.256C1091.4 386.017 1085.61 399.012 1076.85 409.841L806.056 744.321C797.29 755.148 785.783 763.511 772.78 768.504C763.668 772.003 753.993 773.78 744.285 773.78H744.287ZM375.146 -158.525L376.145 -157.717L105.353 176.763C88.1195 198.048 83.5119 227.155 93.3241 252.724L247.528 654.534C257.34 680.103 280.238 698.649 307.283 702.934L732.279 770.263C736.262 770.894 740.259 771.203 744.227 771.203C767.207 771.203 789.367 760.851 804.063 742.701L1074.85 408.221C1092.09 386.936 1096.7 357.829 1086.88 332.26L932.679 -69.5494C922.867 -95.1187 899.97 -113.665 872.925 -117.95L447.93 -185.279C420.885 -189.563 393.38 -179.002 376.147 -157.717L375.148 -158.525H375.146Z" fill="url(#paint3_linear_19_1296)"/>
<path d="M716.729 758.024C711.463 758.024 706.189 757.475 701.005 756.374L300.157 671.15C287.182 668.391 275.112 662.24 265.253 653.362C255.395 644.485 248.017 633.121 243.919 620.501L117.283 230.661C113.183 218.041 112.475 204.512 115.233 191.532C117.992 178.553 124.141 166.481 133.017 156.62L407.228 -147.995C416.104 -157.856 427.465 -165.235 440.082 -169.335C452.699 -173.435 466.225 -174.144 479.202 -171.385L880.05 -86.1615C893.026 -83.4024 905.095 -77.2512 914.954 -68.3735C924.812 -59.4958 932.191 -48.1319 936.289 -35.5119L1062.92 354.328C1067.02 366.948 1067.73 380.477 1064.97 393.457C1062.22 406.436 1056.07 418.508 1047.19 428.369L772.979 732.985C764.102 742.846 752.742 750.226 740.125 754.325C732.55 756.787 724.646 758.026 716.729 758.026V758.024ZM463.557 -170.58C443.027 -170.58 423.06 -161.922 409.048 -146.356L134.837 158.26C117.388 177.645 111.554 205.097 119.613 229.906L246.248 619.746C254.307 644.553 275.16 663.333 300.668 668.757L701.517 753.98C727.025 759.404 753.712 750.73 771.161 731.347L1045.37 426.73C1062.82 407.345 1068.66 379.893 1060.6 355.084L933.963 -34.7552C925.904 -59.5627 905.051 -78.3441 879.543 -83.7662L478.694 -168.99C473.668 -170.059 468.597 -170.58 463.559 -170.58H463.557Z" fill="url(#paint4_linear_19_1296)"/>
<path d="M691.117 741.66C684.841 741.66 678.566 740.841 672.464 739.206L295.474 638.168C283.27 634.898 272.098 628.446 263.164 619.51C254.23 610.574 247.78 599.399 244.51 587.192L143.496 210.112C140.227 197.905 140.227 185.002 143.496 172.796C146.766 160.59 153.216 149.414 162.15 140.478L438.126 -135.564C447.06 -144.5 458.232 -150.952 470.436 -154.222C482.639 -157.492 495.541 -157.492 507.743 -154.222L884.733 -53.1838C896.937 -49.9134 908.109 -43.4619 917.043 -34.5259C925.977 -25.5898 932.427 -14.4146 935.696 -2.20824L1036.71 374.872C1039.98 387.079 1039.98 399.984 1036.71 412.188C1033.44 424.395 1026.99 435.57 1018.06 444.506L742.081 720.548C733.147 729.484 721.974 735.936 709.771 739.206C703.669 740.841 697.392 741.66 691.117 741.66ZM489.18 -154.33C470.901 -154.33 452.999 -147.141 439.774 -133.913L163.798 142.129C146.236 159.696 139.319 185.514 145.747 209.511L246.761 586.592C253.188 610.588 272.086 629.489 296.076 635.919L673.066 736.957C678.991 738.546 685.029 739.319 691.026 739.319C709.306 739.319 727.208 732.13 740.432 718.903L1016.41 442.86C1033.97 425.294 1040.89 399.476 1034.46 375.48L933.444 -1.60085C927.016 -25.5967 908.119 -44.4983 884.129 -50.9275L507.139 -151.967C501.214 -153.556 495.176 -154.33 489.178 -154.33H489.18Z" fill="url(#paint5_linear_19_1296)"/>
<path d="M667.395 724.816C660.215 724.816 653.046 723.692 646.174 721.458L292.662 606.568C281.219 602.848 270.914 596.156 262.864 587.211C254.813 578.267 249.235 567.318 246.734 555.546L169.453 191.878C166.951 180.106 167.595 167.832 171.312 156.388C175.031 144.941 181.721 134.634 190.664 126.582L466.894 -122.196C475.836 -130.248 486.782 -135.828 498.552 -138.33C510.321 -140.831 522.59 -140.188 534.034 -136.47L887.545 -21.5797C898.989 -17.8615 909.293 -11.1681 917.344 -2.22346C925.394 6.72115 930.973 17.6699 933.474 29.4422L1010.75 393.11C1013.26 404.883 1012.61 417.154 1008.9 428.6C1005.18 440.047 998.486 450.354 989.544 458.406L713.314 707.184C704.371 715.236 693.425 720.816 681.656 723.318C676.954 724.318 672.171 724.816 667.394 724.816H667.395ZM512.905 -137.592C496.696 -137.592 480.732 -131.672 468.379 -120.545L192.149 128.233C174.571 144.065 166.706 168.275 171.624 191.418L248.906 555.086C253.824 578.229 270.854 597.146 293.35 604.457L646.862 719.347C653.548 721.521 660.45 722.58 667.304 722.58C683.513 722.58 699.477 716.66 711.83 705.533L988.06 456.755C1005.64 440.923 1013.5 416.713 1008.58 393.57L931.304 29.902C926.386 6.75891 909.357 -12.1581 886.859 -19.4693L533.347 -134.359C526.661 -136.533 519.76 -137.592 512.905 -137.592Z" fill="url(#paint6_linear_19_1296)"/>
<path d="M645.498 707.608C637.511 707.608 629.553 706.146 622.055 703.267L291.564 576.373C280.867 572.265 271.4 565.386 264.188 556.478C256.976 547.571 252.218 536.878 250.425 525.557L195.046 175.828C193.254 164.507 194.477 152.867 198.584 142.167C202.69 131.467 209.567 121.997 218.474 114.784L493.585 -108.051C502.49 -115.264 513.181 -120.024 524.499 -121.817C535.817 -123.61 547.455 -122.386 558.152 -118.279L888.643 8.61536C899.34 12.723 908.807 19.6018 916.019 28.5104C923.23 37.4189 927.989 48.1103 929.783 59.4313L985.162 409.16C986.955 420.481 985.732 432.121 981.625 442.821C977.518 453.521 970.641 462.991 961.735 470.204L686.623 693.039C677.717 700.252 667.028 705.012 655.71 706.805C652.323 707.342 648.908 707.608 645.499 707.608H645.498ZM534.792 -120.487C520.49 -120.487 506.336 -115.657 494.917 -106.409L219.805 116.426C202.297 130.607 193.611 153.241 197.136 175.497L252.515 525.225C256.038 547.482 271.293 566.323 292.324 574.398L622.815 701.292C630.128 704.099 637.794 705.473 645.419 705.473C659.72 705.473 673.874 700.643 685.294 691.395L960.405 468.56C977.913 454.381 986.598 431.745 983.075 409.489L927.696 59.7608C924.172 37.5047 908.917 18.6632 887.886 10.5885L557.396 -116.306C550.083 -119.113 542.417 -120.487 534.792 -120.487Z" fill="url(#paint7_linear_19_1296)"/>
<path d="M625.363 690.146C616.659 690.146 608.008 688.32 600.023 684.763L292.025 547.601C282.055 543.161 273.393 536.147 266.979 527.315C260.564 518.484 256.57 508.077 255.43 497.221L220.188 161.842C219.047 150.986 220.79 139.976 225.23 130.003C229.669 120.031 236.682 111.368 245.511 104.952L518.267 -93.2655C527.097 -99.6827 537.501 -103.677 548.354 -104.818C559.208 -105.959 570.215 -104.216 580.185 -99.7754L888.183 37.3862C898.153 41.8268 906.815 48.8411 913.229 57.6725C919.644 66.5038 923.638 76.9103 924.778 87.7664L960.02 423.146C961.161 434.002 959.418 445.012 954.978 454.984C950.539 464.957 943.526 473.62 934.697 480.036L661.941 678.253C653.111 684.67 642.707 688.665 631.854 689.806C629.694 690.032 627.526 690.146 625.363 690.146ZM554.909 -103.123C542.362 -103.123 529.895 -99.2263 519.451 -91.6372L246.695 106.58C229.338 119.193 219.948 140.288 222.19 161.631L257.431 497.01C259.674 518.354 273.242 537.034 292.843 545.762L600.841 682.924C608.649 686.402 616.991 688.111 625.299 688.111C637.846 688.111 650.313 684.214 660.757 676.625L933.513 478.407C950.87 465.794 960.26 444.7 958.018 423.357L922.776 87.9774C920.534 66.6342 906.966 47.954 887.365 39.2256L579.367 -97.9377C571.559 -101.416 563.217 -103.125 554.909 -103.125V-103.123Z" fill="url(#paint8_linear_19_1296)"/>
<path d="M606.919 672.531C597.58 672.531 588.329 670.318 579.989 666.068L293.895 520.26C284.633 515.54 276.746 508.436 271.085 499.718C265.424 490.998 262.144 480.902 261.6 470.52L244.796 149.792C244.252 139.41 246.458 129.025 251.178 119.762C255.897 110.498 262.998 102.609 271.715 96.9463L541.004 -77.9738C549.722 -83.636 559.815 -86.9167 570.195 -87.4606C580.575 -88.0045 590.957 -85.798 600.219 -81.0777L886.312 64.7299C895.574 69.4502 903.461 76.5537 909.122 85.2718C914.783 93.9917 918.063 104.088 918.607 114.47L935.411 435.198C935.955 445.58 933.749 455.964 929.03 465.228C924.311 474.492 917.209 482.381 908.493 488.044L639.203 662.964C630.485 668.626 620.392 671.907 610.012 672.451C608.981 672.504 607.95 672.531 606.921 672.531H606.919ZM573.321 -85.6006C562.389 -85.6006 551.489 -82.4967 542.049 -76.3661L272.759 98.554C255.622 109.685 245.642 129.279 246.711 149.689L263.515 470.417C264.584 490.827 276.559 509.27 294.765 518.549L580.858 664.357C589.036 668.525 597.97 670.589 606.885 670.589C617.817 670.589 628.717 667.485 638.157 661.354L907.446 486.434C924.583 475.302 934.564 455.709 933.495 435.299L916.691 114.571C915.622 94.1615 903.647 75.7181 885.441 66.4389L599.347 -79.3688C591.17 -83.5365 582.236 -85.6006 573.321 -85.6006Z" fill="url(#paint9_linear_19_1296)"/>
<path d="M590.104 654.853C580.204 654.853 570.442 652.236 561.868 647.286L297.037 494.349C288.465 489.399 281.317 482.249 276.368 473.675C271.419 465.101 268.803 455.334 268.803 445.432V139.558C268.803 129.656 271.419 119.892 276.368 111.316C281.317 102.74 288.465 95.5921 297.037 90.6419L561.868 -62.295C570.44 -67.2452 580.204 -69.8618 590.104 -69.8618C600.003 -69.8618 609.766 -67.2452 618.34 -62.295L883.171 90.6419C891.744 95.5921 898.891 102.742 903.84 111.316C908.789 119.89 911.405 129.656 911.405 139.558V445.432C911.405 455.334 908.789 465.099 903.84 473.675C898.891 482.251 891.743 489.399 883.171 494.349L618.34 647.286C609.766 652.236 600.003 654.853 590.104 654.853ZM590.104 -68.0156C580.655 -68.0156 571.208 -65.5825 562.782 -60.7165L297.951 92.2205C281.099 101.953 270.63 120.091 270.63 139.555V445.429C270.63 464.893 281.099 483.031 297.951 492.763L562.782 645.7C579.635 655.433 600.575 655.433 617.427 645.7L882.258 492.763C899.11 483.031 909.58 464.893 909.58 445.429V139.555C909.58 120.091 899.11 101.953 882.258 92.2205L617.427 -60.7165C609.001 -65.5825 599.552 -68.0156 590.105 -68.0156H590.104Z" fill="url(#paint10_linear_19_1296)"/>
<path d="M574.85 637.199C573.915 637.199 572.982 637.175 572.045 637.125C562.631 636.631 553.474 633.656 545.568 628.52L301.315 469.863C293.408 464.727 286.967 457.571 282.687 449.168C278.407 440.766 276.405 431.348 276.899 421.931L292.141 131.021C292.635 121.605 295.609 112.446 300.744 104.537C305.878 96.6291 313.033 90.1862 321.433 85.9052L580.929 -46.3457C589.33 -50.6267 598.747 -52.6291 608.16 -52.1349C617.574 -51.6408 626.731 -48.6655 634.637 -43.53L878.891 115.127C886.797 120.263 893.238 127.42 897.518 135.822C901.798 144.224 903.8 153.643 903.306 163.059L888.065 453.969C887.57 463.386 884.596 472.545 879.462 480.453C874.328 488.361 867.172 494.804 858.772 499.085L599.276 631.336C591.711 635.192 583.319 637.199 574.848 637.199H574.85ZM605.324 -50.4483C597.238 -50.4483 589.136 -48.5763 581.719 -44.7963L322.222 87.4546C305.71 95.8707 294.848 112.598 293.878 131.112L278.637 422.022C277.668 440.534 286.72 458.307 302.263 468.403L546.516 627.062C555.078 632.623 564.967 635.437 574.881 635.439C582.967 635.439 591.069 633.567 598.487 629.787L857.983 497.536C874.496 489.12 885.358 472.392 886.327 453.878L901.57 162.968C902.539 144.456 893.487 126.684 877.944 116.588L633.691 -42.0699C625.129 -47.6309 615.24 -50.4465 605.326 -50.4465L605.324 -50.4483Z" fill="url(#paint11_linear_19_1296)"/>
<path d="M561.096 619.643C559.316 619.643 557.533 619.55 555.756 619.363C546.827 618.424 538.267 615.138 531.003 609.859L306.605 446.785C299.342 441.505 293.572 434.379 289.92 426.174C286.267 417.969 284.833 408.913 285.772 399.98L314.766 124.063C315.704 115.132 318.989 106.57 324.267 99.3038C329.546 92.039 336.67 86.2669 344.873 82.6139L598.264 -30.2292C606.467 -33.8822 615.523 -35.3167 624.452 -34.3781C633.38 -33.4395 641.94 -30.1537 649.205 -24.8741L873.602 138.2C880.865 143.48 886.636 150.605 890.288 158.81C893.94 167.016 895.374 176.073 894.436 185.004L865.442 460.922C864.504 469.852 861.217 478.414 855.94 485.681C850.664 492.947 843.538 498.718 835.335 502.371L581.944 615.214C575.374 618.139 568.256 619.643 561.096 619.643ZM619.058 -32.9814C612.222 -32.9814 605.361 -31.5762 598.937 -28.7142L345.545 84.129C329.421 91.3097 318.257 106.678 316.413 124.237L287.42 400.154C285.574 417.712 293.301 435.066 307.58 445.443L531.977 608.517C540.568 614.759 550.828 617.966 561.148 617.966C567.984 617.966 574.845 616.561 581.269 613.699L834.661 500.856C850.786 493.675 861.95 478.306 863.794 460.748L892.786 184.831C894.632 167.273 886.905 149.919 872.626 139.542L648.229 -23.5324C639.638 -29.7745 629.378 -32.9814 619.058 -32.9814Z" fill="url(#paint12_linear_19_1296)"/>
<path d="M548.767 602.258C546.223 602.258 543.676 602.059 541.149 601.659C532.702 600.32 524.726 596.769 518.08 591.386L312.787 425.104C306.142 419.721 301.009 412.655 297.946 404.67C294.882 396.684 293.969 387.999 295.306 379.55L336.63 118.578C337.968 110.131 341.519 102.15 346.9 95.5032C352.282 88.8561 359.346 83.7224 367.329 80.6579L613.946 -14.0318C621.93 -17.0963 630.613 -18.0108 639.06 -16.6725C647.507 -15.3341 655.483 -11.7824 662.129 -6.3998L867.421 159.883C874.067 165.265 879.199 172.331 882.263 180.317C885.327 188.302 886.239 196.988 884.903 205.436L843.579 466.409C842.241 474.857 838.69 482.836 833.308 489.483C827.927 496.13 820.863 501.264 812.88 504.328L566.263 599.018C560.669 601.166 554.728 602.258 548.769 602.258H548.767ZM631.378 -15.679C625.688 -15.679 619.969 -14.6547 614.51 -12.5596L367.894 82.1301C352.199 88.1561 340.817 102.216 338.188 118.823L296.863 379.795C294.234 396.403 300.716 413.293 313.779 423.875L519.072 590.158C532.136 600.739 550 603.57 565.695 597.544L812.312 502.855C828.006 496.829 839.388 482.769 842.018 466.162L883.342 205.189C885.972 188.582 879.489 171.691 866.426 161.11L661.134 -5.17298C652.613 -12.074 642.048 -15.679 631.378 -15.679Z" fill="url(#paint13_linear_19_1296)"/>
<path d="M537.79 585.106C534.557 585.106 531.32 584.77 528.138 584.092C520.171 582.399 512.763 578.622 506.711 573.171L319.747 404.788C313.695 399.337 309.167 392.362 306.65 384.614C304.134 376.867 303.698 368.56 305.391 360.592L357.697 114.448C359.391 106.48 363.166 99.0689 368.616 93.0154C374.066 86.962 381.039 82.4322 388.786 79.9151L628.056 2.15203C635.801 -0.365092 644.105 -0.800907 652.072 0.892615C660.038 2.58614 667.447 6.36268 673.499 11.8139L860.462 180.197C866.514 185.648 871.043 192.623 873.559 200.371C876.076 208.118 876.512 216.425 874.818 224.393L822.512 470.537C820.819 478.505 817.043 485.916 811.593 491.969C806.143 498.023 799.17 502.553 791.423 505.07L552.154 582.833C547.503 584.344 542.65 585.105 537.79 585.105V585.106ZM642.355 1.39536C637.715 1.39536 633.046 2.11258 628.519 3.58304L389.249 81.3461C374.023 86.2945 362.495 99.0998 359.168 114.764L306.861 360.908C303.533 376.571 308.856 392.958 320.752 403.673L507.716 572.056C516.077 579.585 526.884 583.593 537.852 583.593C542.492 583.593 547.162 582.876 551.689 581.405L790.959 503.642C806.185 498.694 817.712 485.889 821.04 470.225L873.347 224.081C876.675 208.417 871.352 192.031 859.455 181.315L672.492 12.9326C664.131 5.40353 653.324 1.39536 642.355 1.39536Z" fill="url(#paint14_linear_19_1296)"/>
<path d="M528.089 568.243C524.236 568.243 520.384 567.74 516.637 566.736C509.146 564.729 502.286 560.767 496.802 555.282L327.377 385.816C321.893 380.331 317.932 373.469 315.925 365.976C313.918 358.483 313.918 350.561 315.925 343.066L377.939 111.572C379.946 104.079 383.907 97.2171 389.391 91.7316C394.875 86.2461 401.735 82.2843 409.226 80.2767L640.665 18.2478C648.156 16.2403 656.076 16.2403 663.569 18.2478C671.061 20.2553 677.921 24.2172 683.405 29.7027L852.83 199.168C858.314 204.654 862.275 211.515 864.282 219.008C866.289 226.501 866.289 234.423 864.282 241.918L802.268 473.413C800.261 480.906 796.3 487.767 790.816 493.253C785.331 498.738 778.473 502.7 770.98 504.708L539.541 566.736C535.795 567.74 531.942 568.243 528.089 568.243ZM652.062 18.1826C648.381 18.1826 644.676 18.6579 641.036 19.6325L409.597 81.6614C394.868 85.6095 383.269 97.212 379.321 111.944L317.307 343.438C313.36 358.171 317.608 374.021 328.389 384.805L497.814 554.271C505.931 562.39 516.924 566.805 528.144 566.805C531.827 566.805 535.531 566.33 539.171 565.355L770.61 503.326C785.338 499.378 796.938 487.776 800.885 473.044L862.899 241.549C866.846 226.817 862.599 210.966 851.818 200.182L682.393 30.7168C674.275 22.5975 663.283 18.1826 652.062 18.1826Z" fill="url(#paint15_linear_19_1296)"/>
<path d="M519.593 551.718C515.185 551.718 510.785 551.028 506.565 549.657C499.54 547.373 493.214 543.264 488.272 537.773L335.581 368.152C330.638 362.661 327.213 355.938 325.677 348.711C324.142 341.484 324.537 333.95 326.82 326.924L397.336 109.847C399.619 102.821 403.726 96.4931 409.217 91.5498C414.706 86.6065 421.427 83.18 428.652 81.6443L651.859 34.1879C659.084 32.6523 666.617 33.0469 673.641 35.3307C680.666 37.6144 686.992 41.7221 691.934 47.2145L844.625 216.836C849.568 222.327 852.993 229.049 854.529 236.276C856.064 243.504 855.669 251.038 853.386 258.064L782.87 475.14C780.587 482.167 776.479 488.495 770.989 493.438C765.5 498.381 758.779 501.808 751.554 503.343L528.347 550.8C525.46 551.414 522.525 551.719 519.592 551.719L519.593 551.718ZM660.568 34.6358C657.762 34.6358 654.94 34.9257 652.14 35.5211L428.934 82.9775C414.73 85.9974 403.118 96.4553 398.631 110.269L328.115 327.346C323.628 341.16 326.877 356.446 336.593 367.24L489.284 536.862C499 547.656 513.86 552.486 528.064 549.467L751.271 502.01C765.474 498.99 777.086 488.532 781.574 474.718L852.089 257.642C856.577 243.828 853.328 228.542 843.612 217.747L690.921 48.1256C683.119 39.459 672 34.6375 660.568 34.6375V34.6358Z" fill="url(#paint16_linear_19_1296)"/>
</g>
<defs>
<linearGradient id="paint0_linear_19_1296" x1="590.103" y1="815.988" x2="590.103" y2="-231" gradientUnits="userSpaceOnUse">
<stop stop-color="white"/>
<stop offset="0.55" stop-color="#fff"/>
<stop offset="1" stop-color="#fff"/>
</linearGradient>
<linearGradient id="paint1_linear_19_1296" x1="590.104" y1="802.912" x2="590.104" y2="-217.925" gradientUnits="userSpaceOnUse">
<stop stop-color="white"/>
<stop offset="0.55" stop-color="#fff"/>
<stop offset="1" stop-color="#fff"/>
</linearGradient>
<linearGradient id="paint2_linear_19_1296" x1="590.104" y1="788.792" x2="590.104" y2="-203.804" gradientUnits="userSpaceOnUse">
<stop stop-color="white"/>
<stop offset="0.55" stop-color="#fff"/>
<stop offset="1" stop-color="#fff"/>
</linearGradient>
<linearGradient id="paint3_linear_19_1296" x1="590.104" y1="773.78" x2="590.104" y2="-188.793" gradientUnits="userSpaceOnUse">
<stop stop-color="white"/>
<stop offset="0.55" stop-color="#fff"/>
<stop offset="1" stop-color="#fff"/>
</linearGradient>
<linearGradient id="paint4_linear_19_1296" x1="590.104" y1="758.024" x2="590.104" y2="-173.037" gradientUnits="userSpaceOnUse">
<stop stop-color="white"/>
<stop offset="0.55" stop-color="#fff"/>
<stop offset="1" stop-color="#fff"/>
</linearGradient>
<linearGradient id="paint5_linear_19_1296" x1="590.103" y1="741.66" x2="590.103" y2="-156.674" gradientUnits="userSpaceOnUse">
<stop stop-color="white"/>
<stop offset="0.55" stop-color="#fff"/>
<stop offset="1" stop-color="#fff"/>
</linearGradient>
<linearGradient id="paint6_linear_19_1296" x1="590.104" y1="724.816" x2="590.104" y2="-139.828" gradientUnits="userSpaceOnUse">
<stop stop-color="white"/>
<stop offset="0.55" stop-color="#fff"/>
<stop offset="1" stop-color="#fff"/>
</linearGradient>
<linearGradient id="paint7_linear_19_1296" x1="590.103" y1="707.608" x2="590.103" y2="-122.621" gradientUnits="userSpaceOnUse">
<stop stop-color="white"/>
<stop offset="0.55" stop-color="#fff"/>
<stop offset="1" stop-color="#fff"/>
</linearGradient>
<linearGradient id="paint8_linear_19_1296" x1="590.104" y1="690.146" x2="590.104" y2="-105.16" gradientUnits="userSpaceOnUse">
<stop stop-color="white"/>
<stop offset="0.55" stop-color="#fff"/>
<stop offset="1" stop-color="#fff"/>
</linearGradient>
<linearGradient id="paint9_linear_19_1296" x1="590.103" y1="672.531" x2="590.103" y2="-87.543" gradientUnits="userSpaceOnUse">
<stop stop-color="white"/>
<stop offset="0.55" stop-color="#fff"/>
<stop offset="1" stop-color="#fff"/>
</linearGradient>
<linearGradient id="paint10_linear_19_1296" x1="590.104" y1="654.853" x2="590.104" y2="-69.8652" gradientUnits="userSpaceOnUse">
<stop stop-color="white"/>
<stop offset="0.55" stop-color="#fff"/>
<stop offset="1" stop-color="#fff"/>
</linearGradient>
<linearGradient id="paint11_linear_19_1296" x1="590.103" y1="637.199" x2="590.103" y2="-52.2104" gradientUnits="userSpaceOnUse">
<stop stop-color="white"/>
<stop offset="0.55" stop-color="#fff"/>
<stop offset="1" stop-color="#fff"/>
</linearGradient>
<linearGradient id="paint12_linear_19_1296" x1="590.104" y1="619.643" x2="590.104" y2="-34.6561" gradientUnits="userSpaceOnUse">
<stop stop-color="white"/>
<stop offset="0.55" stop-color="#fff"/>
<stop offset="1" stop-color="#fff"/>
</linearGradient>
<linearGradient id="paint13_linear_19_1296" x1="590.104" y1="602.258" x2="590.104" y2="-17.2713" gradientUnits="userSpaceOnUse">
<stop stop-color="white"/>
<stop offset="0.55" stop-color="#fff"/>
<stop offset="1" stop-color="#fff"/>
</linearGradient>
<linearGradient id="paint14_linear_19_1296" x1="590.104" y1="585.106" x2="590.104" y2="-0.118024" gradientUnits="userSpaceOnUse">
<stop stop-color="white"/>
<stop offset="0.55" stop-color="#fff"/>
<stop offset="1" stop-color="#fff"/>
</linearGradient>
<linearGradient id="paint15_linear_19_1296" x1="590.103" y1="568.243" x2="590.103" y2="16.7448" gradientUnits="userSpaceOnUse">
<stop stop-color="white"/>
<stop offset="0.55" stop-color="#fff"/>
<stop offset="1" stop-color="#fff"/>
</linearGradient>
<linearGradient id="paint16_linear_19_1296" x1="590.104" y1="551.718" x2="590.104" y2="33.2682" gradientUnits="userSpaceOnUse">
<stop stop-color="white"/>
<stop offset="0.55" stop-color="#fff"/>
<stop offset="1" stop-color="#fff"/>
</linearGradient>
</defs>
</svg>
