<svg width="418" height="44" viewBox="0 0 418 44" fill="none" xmlns="http://www.w3.org/2fff/svg">
<g style="mix-blend-mode:color-dodge" opacity="0.25">
<path d="M76.1631 609.988H-421.956C-438.081 609.988 -453.985 605.726 -467.948 597.662C-481.912 589.597 -493.554 577.952 -501.617 563.985L-750.676 132.497C-758.739 118.53 -763 102.623 -763 86.4941C-763 70.3653 -758.739 54.4579 -750.676 40.491L-501.617 -390.997C-493.554 -404.964 -481.912 -416.609 -467.948 -424.673C-453.985 -432.738 -438.079 -437 -421.956 -437H76.1613C92.2863 -437 108.19 -432.738 122.153 -424.673C136.117 -416.609 147.759 -404.964 155.822 -390.997L404.882 40.4893C412.944 54.4561 417.205 70.3653 417.205 86.4924C417.205 102.619 412.944 118.529 404.882 132.495L155.822 563.982C147.759 577.948 136.117 589.594 122.153 597.658C108.19 605.723 92.2845 609.985 76.1613 609.985L76.1631 609.988ZM-421.956 -434.025C-453.655 -434.025 -483.191 -416.968 -499.042 -389.509L-748.1 41.9786C-763.949 69.437 -763.949 103.551 -748.1 131.01L-499.04 562.496C-483.191 589.954 -453.654 607.011 -421.955 607.011H76.1631C107.862 607.011 137.398 589.954 153.249 562.496L402.308 131.01C418.157 103.551 418.157 69.437 402.308 41.9786L153.247 -389.508C137.398 -416.966 107.861 -434.023 76.1613 -434.023H-421.956V-434.025Z" fill="url(#paint0_linear_19_1194)"/>
<path d="M42.459 596.912C40.9374 596.912 39.4158 596.872 37.8907 596.792L-435.858 571.959C-451.194 571.154 -466.107 566.308 -478.987 557.942C-491.866 549.576 -502.359 537.92 -509.331 524.235L-724.701 101.441C-731.673 87.7554 -734.934 72.4124 -734.129 57.0729C-733.325 41.7334 -728.48 26.816 -720.116 13.9336L-461.74 -384.024C-453.376 -396.906 -441.723 -407.402 -428.041 -414.375C-414.358 -421.348 -399.019 -424.61 -383.683 -423.805L90.0652 -398.972C105.401 -398.167 120.315 -393.322 133.194 -384.955C146.074 -376.589 156.567 -364.933 163.538 -351.248L378.911 71.546C385.882 85.2314 389.143 100.574 388.339 115.914C387.534 131.253 382.69 146.171 374.325 159.053L115.949 557.012C107.585 569.895 95.9319 580.39 82.2498 587.363C69.9262 593.643 56.2578 596.914 42.4606 596.914L42.459 596.912ZM-388.236 -421.091C-416.775 -421.091 -443.723 -406.57 -459.364 -382.481L-717.74 15.4796C-734.182 40.8052 -735.882 73.2498 -722.176 100.156L-506.804 522.949C-493.098 549.855 -465.857 567.551 -435.708 569.131L38.04 593.964C68.1885 595.544 97.1293 580.794 113.572 555.47L371.948 157.511C388.39 132.185 390.09 99.7405 376.384 72.8346L161.011 -349.959C147.305 -376.865 120.064 -394.56 89.916 -396.141L-383.832 -420.976C-385.303 -421.053 -386.774 -421.091 -388.238 -421.091H-388.236Z" fill="url(#paint1_linear_19_1194)"/>
<path d="M10.8472 582.792C7.94812 582.792 5.04565 582.641 2.14832 582.336L-447.185 535.098C-461.73 533.569 -475.673 528.215 -487.504 519.616C-499.337 511.018 -508.734 499.408 -514.683 486.044L-698.449 73.2C-704.398 59.8354 -706.734 45.0827 -705.204 30.5324C-703.676 15.9839 -698.323 2.03769 -689.728 -9.79639L-424.162 -375.405C-415.566 -387.241 -403.96 -396.64 -390.598 -402.591C-377.237 -408.541 -362.486 -410.878 -347.941 -409.349L101.392 -362.111C115.937 -360.582 129.88 -355.229 141.711 -346.631C153.544 -338.033 162.941 -326.423 168.89 -313.059L352.658 99.7867C358.607 113.151 360.943 127.904 359.413 142.454C357.885 157.003 352.533 170.949 343.937 182.783L78.3711 548.39C69.7751 560.226 58.1687 569.625 44.8073 575.576C34.1066 580.34 22.5137 582.789 10.8489 582.789L10.8472 582.792ZM-446.902 532.414L2.43134 579.652C31.0256 582.659 59.2871 570.073 76.1857 546.806L341.751 181.199C358.651 157.933 361.885 127.159 350.191 100.888L166.424 -311.957C154.73 -338.23 129.702 -356.418 101.107 -359.424L-348.224 -406.664C-376.818 -409.67 -405.08 -397.085 -421.978 -373.818L-687.546 -8.21097C-704.446 15.0557 -707.679 45.8291 -695.985 72.1001L-512.218 484.946C-500.524 511.218 -475.496 529.406 -446.902 532.412V532.414Z" fill="url(#paint2_linear_19_1194)"/>
<path d="M-18.7128 567.78C-22.8573 567.78 -27.0069 567.456 -31.1239 566.804L-456.119 499.475C-469.876 497.296 -482.869 491.508 -493.695 482.74C-504.519 473.972 -512.88 462.463 -517.872 449.457L-672.076 47.6474C-677.068 34.6415 -678.555 20.4928 -676.375 6.73181C-674.196 -7.02911 -668.41 -20.0248 -659.644 -30.8534L-388.852 -365.334C-380.086 -376.16 -368.579 -384.523 -355.576 -389.516C-342.573 -394.509 -328.428 -395.997 -314.67 -393.816L110.324 -326.487C124.082 -324.308 137.074 -318.521 147.9 -309.753C158.725 -300.985 167.086 -289.475 172.078 -276.469L326.28 125.34C331.272 138.348 332.759 152.495 330.579 166.256C328.4 180.017 322.614 193.012 313.848 203.841L43.0559 538.321C34.2901 549.148 22.7831 557.511 9.78027 562.504C0.667969 566.003 -9.00702 567.78 -18.7146 567.78H-18.7128ZM-387.854 -364.525L-386.855 -363.717L-657.647 -29.2371C-674.881 -7.95227 -679.488 21.155 -669.676 46.7243L-515.472 448.534C-505.66 474.103 -482.762 492.649 -455.717 496.934L-30.7208 564.263C-26.7375 564.894 -22.7407 565.203 -18.7729 565.203C4.20685 565.203 26.3666 554.851 41.0626 536.701L311.855 202.221C329.088 180.936 333.696 151.829 323.883 126.26L169.679 -275.549C159.867 -301.119 136.97 -319.665 109.925 -323.95L-315.07 -391.279C-342.115 -395.563 -369.62 -385.002 -386.853 -363.717L-387.852 -364.525H-387.854Z" fill="url(#paint3_linear_19_1194)"/>
<path d="M-46.2711 552.024C-51.5374 552.024 -56.8106 551.475 -61.9946 550.374L-462.843 465.15C-475.818 462.391 -487.888 456.24 -497.747 447.362C-507.605 438.485 -514.983 427.121 -519.081 414.501L-645.717 24.6611C-649.817 12.0412 -650.525 -1.48816 -647.767 -14.4684C-645.008 -27.4469 -638.859 -39.5195 -629.983 -49.3803L-355.772 -353.995C-346.896 -363.856 -335.535 -371.235 -322.918 -375.335C-310.301 -379.435 -296.775 -380.144 -283.798 -377.385L117.05 -292.161C130.026 -289.402 142.095 -283.251 151.954 -274.373C161.812 -265.496 169.191 -254.132 173.289 -241.512L299.924 148.328C304.024 160.948 304.732 174.477 301.974 187.457C299.216 200.436 293.066 212.508 284.19 222.369L9.97913 526.985C1.10187 536.846 -10.2576 544.226 -22.8745 548.325C-30.4498 550.787 -38.3544 552.026 -46.2711 552.026V552.024ZM-299.443 -376.58C-319.973 -376.58 -339.94 -367.922 -353.952 -352.356L-628.163 -47.7401C-645.612 -28.3546 -651.446 -0.903076 -643.387 23.9061L-516.752 413.746C-508.693 438.553 -487.84 457.333 -462.332 462.757L-61.4834 547.98C-35.9752 553.404 -9.28839 544.73 8.16089 525.347L282.372 220.73C299.821 201.345 305.655 173.893 297.598 149.084L170.963 -240.755C162.904 -265.563 142.051 -284.344 116.543 -289.766L-284.306 -374.99C-289.332 -376.059 -294.403 -376.58 -299.441 -376.58H-299.443Z" fill="url(#paint4_linear_19_1194)"/>
<path d="M-71.8826 535.66C-78.1593 535.66 -84.4343 534.841 -90.5361 533.206L-467.526 432.168C-479.73 428.898 -490.902 422.446 -499.836 413.51C-508.77 404.574 -515.22 393.399 -518.49 381.192L-619.504 4.11176C-622.773 -8.09464 -622.773 -20.9977 -619.504 -33.2041C-616.234 -45.4105 -609.784 -56.5857 -600.85 -65.5217L-324.874 -341.564C-315.94 -350.5 -304.768 -356.952 -292.564 -360.222C-280.361 -363.492 -267.459 -363.492 -255.257 -360.222L121.733 -259.184C133.937 -255.913 145.109 -249.462 154.043 -240.526C162.977 -231.59 169.427 -220.415 172.696 -208.208L273.711 168.872C276.98 181.079 276.98 193.984 273.711 206.188C270.441 218.395 263.991 229.57 255.057 238.506L-20.9193 514.548C-29.8531 523.484 -41.0257 529.936 -53.2291 533.206C-59.3309 534.841 -65.6076 535.66 -71.8826 535.66ZM-273.82 -360.33C-292.099 -360.33 -310.001 -353.141 -323.226 -339.913L-599.202 -63.8711C-616.764 -46.3044 -623.681 -20.4864 -617.253 3.5112L-516.239 380.592C-509.812 404.588 -490.914 423.489 -466.924 429.919L-89.934 530.957C-84.0089 532.546 -77.9706 533.319 -71.9735 533.319C-53.694 533.319 -35.792 526.13 -22.5678 512.903L253.409 236.86C270.971 219.294 277.888 193.476 271.458 169.48L170.444 -207.601C164.016 -231.597 145.119 -250.498 121.129 -256.927L-255.861 -357.967C-261.786 -359.556 -267.824 -360.33 -273.822 -360.33H-273.82Z" fill="url(#paint5_linear_19_1194)"/>
<path d="M-95.6047 518.815C-102.785 518.815 -109.954 517.691 -116.826 515.457L-470.338 400.567C-481.781 396.847 -492.086 390.156 -500.136 381.211C-508.187 372.266 -513.765 361.318 -516.266 349.545L-593.547 -14.1226C-596.049 -25.8949 -595.405 -38.1682 -591.688 -49.6128C-587.969 -61.0591 -581.279 -71.3661 -572.336 -79.4185L-296.106 -328.196C-287.164 -336.249 -276.218 -341.829 -264.448 -344.33C-252.679 -346.832 -240.41 -346.189 -228.966 -342.47L124.545 -227.58C135.989 -223.862 146.293 -217.169 154.344 -208.224C162.394 -199.279 167.973 -188.331 170.474 -176.558L247.755 187.11C250.256 198.882 249.613 211.154 245.895 222.6C242.176 234.046 235.486 244.353 226.544 252.406L-49.6864 501.183C-58.6289 509.236 -69.575 514.816 -81.3445 517.317C-86.0464 518.318 -90.829 518.815 -95.6064 518.815H-95.6047ZM-250.095 -343.592C-266.304 -343.592 -282.268 -337.673 -294.621 -326.546L-570.851 -77.7679C-588.429 -61.9359 -596.294 -37.7256 -591.376 -14.5825L-514.094 349.086C-509.176 372.229 -492.146 391.146 -469.65 398.457L-116.138 513.347C-109.452 515.521 -102.55 516.58 -95.6956 516.58C-79.4866 516.58 -63.5229 510.66 -51.1702 499.533L225.06 250.755C242.638 234.923 250.503 210.713 245.585 187.57L168.304 -176.098C163.386 -199.242 146.357 -218.159 123.859 -225.47L-229.653 -340.36C-236.339 -342.534 -243.24 -343.592 -250.095 -343.592Z" fill="url(#paint6_linear_19_1194)"/>
<path d="M-117.502 501.608C-125.489 501.608 -133.447 500.146 -140.945 497.267L-471.436 370.373C-482.133 366.265 -491.6 359.387 -498.812 350.478C-506.024 341.571 -510.782 330.878 -512.575 319.557L-567.954 -30.1715C-569.746 -41.4926 -568.523 -53.1328 -564.416 -63.8326C-560.31 -74.5325 -553.433 -84.0022 -544.526 -91.2156L-269.415 -314.05C-260.51 -321.264 -249.819 -326.023 -238.501 -327.816C-227.183 -329.609 -215.545 -328.386 -204.848 -324.278L125.643 -197.384C136.34 -193.276 145.807 -186.398 153.019 -177.489C160.23 -168.581 164.989 -157.889 166.783 -146.568L222.162 203.16C223.955 214.482 222.732 226.122 218.625 236.822C214.518 247.521 207.641 256.991 198.735 264.204L-76.377 487.039C-85.2834 494.252 -95.9722 499.012 -107.29 500.805C-110.677 501.342 -114.092 501.608 -117.501 501.608H-117.502ZM-228.208 -326.486C-242.51 -326.486 -256.664 -321.656 -268.083 -312.408L-543.195 -89.5735C-560.703 -75.3922 -569.389 -52.7587 -565.864 -30.5027L-510.485 319.226C-506.962 341.482 -491.707 360.323 -470.676 368.398L-140.185 495.292C-132.872 498.099 -125.206 499.474 -117.581 499.474C-103.28 499.474 -89.1259 494.644 -77.7064 485.395L197.405 262.561C214.913 248.381 223.598 225.746 220.075 203.49L164.696 -146.239C161.172 -168.495 145.917 -187.336 124.886 -195.411L-205.604 -322.305C-212.917 -325.112 -220.583 -326.486 -228.208 -326.486Z" fill="url(#paint7_linear_19_1194)"/>
<path d="M-137.637 484.146C-146.341 484.146 -154.992 482.32 -162.977 478.763L-470.975 341.601C-480.945 337.161 -489.607 330.147 -496.021 321.315C-502.436 312.484 -506.43 302.077 -507.57 291.221L-542.812 -44.1579C-543.953 -55.0139 -542.21 -66.0244 -537.77 -75.9968C-533.331 -85.9692 -526.318 -94.6324 -517.489 -101.048L-244.733 -299.266C-235.903 -305.683 -225.499 -309.677 -214.646 -310.818C-203.792 -311.959 -192.785 -310.216 -182.815 -305.775L125.183 -168.614C135.153 -164.173 143.815 -157.159 150.229 -148.328C156.644 -139.496 160.638 -129.09 161.778 -118.234L197.02 217.146C198.161 228.002 196.418 239.012 191.978 248.984C187.539 258.957 180.526 267.62 171.697 274.036L-101.059 472.253C-109.889 478.67 -120.293 482.665 -131.146 483.806C-133.306 484.032 -135.474 484.146 -137.637 484.146ZM-208.091 -309.123C-220.638 -309.123 -233.105 -305.226 -243.549 -297.637L-516.305 -99.4196C-533.662 -86.8065 -543.052 -65.7121 -540.81 -44.3689L-505.569 291.01C-503.326 312.354 -489.758 331.034 -470.157 339.762L-162.159 476.924C-154.351 480.402 -146.009 482.111 -137.701 482.111C-125.154 482.111 -112.687 478.214 -102.243 470.625L170.513 272.407C187.87 259.794 197.26 238.7 195.018 217.357L159.776 -118.023C157.534 -139.366 143.966 -158.046 124.365 -166.774L-183.633 -303.938C-191.441 -307.416 -199.783 -309.125 -208.091 -309.125V-309.123Z" fill="url(#paint8_linear_19_1194)"/>
<path d="M-156.081 466.532C-165.42 466.532 -174.671 464.318 -183.011 460.068L-469.105 314.261C-478.367 309.54 -486.254 302.437 -491.915 293.719C-497.576 284.999 -500.856 274.903 -501.4 264.52L-518.204 -56.2074C-518.748 -66.5899 -516.542 -76.9741 -511.822 -86.2378C-507.103 -95.5016 -500.002 -103.391 -491.285 -109.053L-221.996 -283.973C-213.278 -289.636 -203.185 -292.916 -192.805 -293.46C-182.425 -294.004 -172.043 -291.797 -162.781 -287.077L123.312 -141.27C132.574 -136.549 140.461 -129.446 146.122 -120.728C151.783 -112.008 155.063 -101.912 155.607 -91.5294L172.411 229.198C172.955 239.581 170.749 249.965 166.03 259.229C161.311 268.492 154.209 276.382 145.493 282.044L-123.797 456.964C-132.515 462.626 -142.608 465.907 -152.988 466.451C-154.019 466.504 -155.05 466.532 -156.079 466.532H-156.081ZM-189.679 -291.6C-200.611 -291.6 -211.511 -288.496 -220.951 -282.366L-490.241 -107.445C-507.378 -96.3149 -517.358 -76.7201 -516.289 -56.3104L-499.485 264.417C-498.416 284.827 -486.441 303.271 -468.235 312.55L-182.142 458.358C-173.964 462.525 -165.03 464.589 -156.115 464.589C-145.183 464.589 -134.283 461.485 -124.843 455.355L144.446 280.435C161.583 269.302 171.564 249.709 170.495 229.3L153.691 -91.4282C152.622 -111.838 140.647 -130.281 122.441 -139.561L-163.653 -285.368C-171.83 -289.536 -180.764 -291.6 -189.679 -291.6Z" fill="url(#paint9_linear_19_1194)"/>
<path d="M-172.896 448.853C-182.796 448.853 -192.558 446.236 -201.132 441.286L-465.963 288.349C-474.535 283.399 -481.683 276.249 -486.632 267.675C-491.581 259.101 -494.197 249.335 -494.197 239.433V-66.4411C-494.197 -76.3431 -491.581 -86.1079 -486.632 -94.6836C-481.683 -103.259 -474.535 -110.407 -465.963 -115.358L-201.132 -268.295C-192.56 -273.245 -182.796 -275.861 -172.896 -275.861C-162.997 -275.861 -153.234 -273.245 -144.66 -268.295L120.171 -115.358C128.744 -110.407 135.891 -103.258 140.84 -94.6836C145.789 -86.1096 148.405 -76.3431 148.405 -66.4411V239.433C148.405 249.335 145.789 259.1 140.84 267.675C135.891 276.251 128.743 283.399 120.171 288.349L-144.66 441.286C-153.234 446.236 -162.997 448.853 -172.896 448.853ZM-172.896 -274.015C-182.345 -274.015 -191.792 -271.582 -200.218 -266.716L-465.049 -113.779C-481.901 -104.047 -492.37 -85.9089 -492.37 -66.4445V239.429C-492.37 258.894 -481.901 277.032 -465.049 286.764L-200.218 439.701C-183.365 449.433 -162.425 449.433 -145.573 439.701L119.258 286.764C136.11 277.032 146.58 258.894 146.58 239.429V-66.4445C146.58 -85.9089 136.11 -104.047 119.258 -113.779L-145.573 -266.716C-153.999 -271.582 -163.448 -274.015 -172.895 -274.015H-172.896Z" fill="url(#paint10_linear_19_1194)"/>
<path d="M-188.15 431.199C-189.085 431.199 -190.018 431.174 -190.955 431.125C-200.369 430.631 -209.526 427.655 -217.432 422.52L-461.685 263.862C-469.592 258.727 -476.033 251.57 -480.313 243.168C-484.593 234.765 -486.595 225.347 -486.101 215.931L-470.859 -74.9793C-470.365 -84.3958 -467.391 -93.5549 -462.256 -101.463C-457.122 -109.371 -449.967 -115.814 -441.567 -120.095L-182.071 -252.346C-173.67 -256.627 -164.253 -258.63 -154.84 -258.135C-145.426 -257.641 -136.269 -254.666 -128.363 -249.531L115.891 -90.873C123.797 -85.7376 130.238 -78.5808 134.518 -70.1784C138.798 -61.776 140.8 -52.3578 140.306 -42.9413L125.065 247.969C124.57 257.385 121.596 266.544 116.462 274.453C111.328 282.361 104.172 288.804 95.7721 293.085L-163.724 425.336C-171.289 429.191 -179.681 431.199 -188.152 431.199H-188.15ZM-157.676 -256.449C-165.762 -256.449 -173.864 -254.577 -181.281 -250.797L-440.778 -118.546C-457.29 -110.13 -468.152 -93.4022 -469.122 -74.8884L-484.363 216.022C-485.332 234.534 -476.28 252.306 -460.737 262.402L-216.484 421.061C-207.922 426.622 -198.033 429.436 -188.119 429.438C-180.033 429.438 -171.931 427.566 -164.513 423.786L94.983 291.535C111.496 283.119 122.358 266.392 123.327 247.878L138.57 -43.0323C139.539 -61.5444 130.487 -79.3169 114.944 -89.4129L-129.309 -248.07C-137.871 -253.631 -147.76 -256.447 -157.674 -256.447L-157.676 -256.449Z" fill="url(#paint11_linear_19_1194)"/>
<path d="M-201.904 413.643C-203.684 413.643 -205.467 413.55 -207.244 413.363C-216.173 412.425 -224.733 409.139 -231.997 403.859L-456.395 240.785C-463.658 235.506 -469.428 228.38 -473.08 220.175C-476.733 211.97 -478.167 202.914 -477.228 193.981L-448.234 -81.9363C-447.296 -90.8672 -444.011 -99.4292 -438.733 -106.696C-433.454 -113.961 -426.33 -119.733 -418.127 -123.386L-164.736 -236.229C-156.533 -239.882 -147.477 -241.316 -138.548 -240.378C-129.62 -239.439 -121.06 -236.153 -113.795 -230.874L110.602 -67.7996C117.865 -62.52 123.636 -55.3941 127.288 -47.1891C130.94 -38.984 132.374 -29.9261 131.436 -20.9952L102.442 254.922C101.504 263.853 98.217 272.415 92.9404 279.681C87.6638 286.948 80.5378 292.718 72.3347 296.371L-181.056 409.214C-187.626 412.14 -194.744 413.643 -201.904 413.643ZM-143.942 -238.981C-150.778 -238.981 -157.639 -237.576 -164.063 -234.714L-417.455 -121.871C-433.579 -114.69 -444.743 -99.3211 -446.587 -81.763L-475.58 194.154C-477.426 211.712 -469.699 229.066 -455.42 239.444L-231.023 402.518C-222.432 408.76 -212.172 411.967 -201.852 411.967C-195.016 411.967 -188.155 410.561 -181.731 407.699L71.6606 294.856C87.7856 287.675 98.9495 272.307 100.794 254.749L129.786 -21.1685C131.632 -38.7266 123.905 -56.0805 109.626 -66.4578L-114.771 -229.532C-123.362 -235.774 -133.622 -238.981 -143.942 -238.981Z" fill="url(#paint12_linear_19_1194)"/>
<path d="M-214.233 396.258C-216.777 396.258 -219.324 396.059 -221.851 395.659C-230.298 394.32 -238.274 390.769 -244.92 385.386L-450.213 219.104C-456.858 213.721 -461.991 206.655 -465.054 198.67C-468.118 190.684 -469.031 181.999 -467.694 173.55L-426.37 -87.4223C-425.032 -95.8693 -421.481 -103.85 -416.1 -110.497C-410.718 -117.144 -403.654 -122.278 -395.671 -125.342L-149.054 -220.032C-141.07 -223.096 -132.387 -224.011 -123.94 -222.672C-115.493 -221.334 -107.517 -217.782 -100.871 -212.4L104.421 -46.1172C111.067 -40.7346 116.199 -33.6689 119.263 -25.6834C122.327 -17.6979 123.239 -9.01239 121.903 -0.563644L80.5787 260.409C79.2407 268.857 75.6898 276.836 70.3085 283.483C64.9272 290.13 57.8632 295.264 49.8796 298.328L-196.737 393.018C-202.331 395.166 -208.272 396.258 -214.231 396.258H-214.233ZM-131.622 -221.679C-137.312 -221.679 -143.031 -220.655 -148.49 -218.56L-395.106 -123.87C-410.801 -117.844 -422.183 -103.784 -424.812 -87.1769L-466.137 173.795C-468.766 190.403 -462.284 207.293 -449.221 217.875L-243.928 384.158C-230.864 394.739 -213 397.57 -197.305 391.544L49.3118 296.855C65.0062 290.829 76.3879 276.769 79.0176 260.162L120.342 -0.81076C122.972 -17.4183 116.489 -34.3089 103.426 -44.8904L-101.866 -211.173C-110.387 -218.074 -120.952 -221.679 -131.622 -221.679Z" fill="url(#paint13_linear_19_1194)"/>
<path d="M-225.21 379.107C-228.443 379.107 -231.68 378.771 -234.862 378.093C-242.829 376.399 -250.237 372.623 -256.289 367.171L-443.253 198.789C-449.305 193.338 -453.833 186.363 -456.35 178.614C-458.866 170.867 -459.302 162.561 -457.609 154.592L-405.303 -91.5517C-403.609 -99.52 -399.834 -106.931 -394.384 -112.984C-388.934 -119.038 -381.961 -123.567 -374.214 -126.084L-134.944 -203.847C-127.199 -206.365 -118.895 -206.8 -110.928 -205.107C-102.962 -203.413 -95.5532 -199.637 -89.5012 -194.186L97.4621 -25.8029C103.514 -20.3517 108.043 -13.3768 110.559 -5.62814C113.076 2.11882 113.512 10.4251 111.818 18.3934L59.5119 264.538C57.8188 272.506 54.0432 279.916 48.5933 285.97C43.1434 292.023 36.1702 296.553 28.4234 299.07L-210.846 376.833C-215.497 378.345 -220.35 379.105 -225.21 379.105V379.107ZM-120.645 -204.604C-125.285 -204.604 -129.954 -203.887 -134.481 -202.416L-373.751 -124.653C-388.977 -119.705 -400.505 -106.9 -403.832 -91.236L-456.139 154.908C-459.467 170.572 -454.144 186.958 -442.248 197.673L-255.284 366.056C-246.923 373.585 -236.116 377.593 -225.148 377.593C-220.508 377.593 -215.838 376.876 -211.311 375.406L27.9585 297.643C43.1846 292.694 54.7122 279.889 58.0402 264.225L110.347 18.0812C113.675 2.41736 108.352 -13.9688 96.4552 -24.6841L-90.5081 -193.067C-98.8691 -200.596 -109.676 -204.604 -120.645 -204.604Z" fill="url(#paint14_linear_19_1194)"/>
<path d="M-234.911 362.243C-238.764 362.243 -242.616 361.74 -246.363 360.736C-253.854 358.729 -260.714 354.767 -266.198 349.282L-435.623 179.816C-441.107 174.331 -445.068 167.469 -447.075 159.976C-449.082 152.483 -449.082 144.561 -447.075 137.066L-385.061 -94.4283C-383.054 -101.921 -379.093 -108.783 -373.609 -114.268C-368.125 -119.754 -361.265 -123.716 -353.774 -125.723L-122.335 -187.752C-114.844 -189.76 -106.924 -189.76 -99.4306 -187.752C-91.9394 -185.745 -85.0795 -181.783 -79.5953 -176.297L89.8297 -6.83177C95.3138 -1.34627 99.2747 5.5153 101.282 13.0083C103.289 20.5014 103.289 28.4233 101.282 35.9181L39.2677 267.413C37.2607 274.906 33.2997 281.767 27.8156 287.253C22.3314 292.738 15.4731 296.7 7.98019 298.708L-223.459 360.736C-227.205 361.74 -231.058 362.243 -234.911 362.243ZM-110.938 -187.817C-114.619 -187.817 -118.324 -187.342 -121.964 -186.368L-353.403 -124.339C-368.132 -120.39 -379.731 -108.788 -383.679 -94.0559L-445.693 137.438C-449.64 152.171 -445.392 168.021 -434.611 178.805L-265.186 348.271C-257.069 356.39 -246.076 360.805 -234.856 360.805C-231.173 360.805 -227.469 360.33 -223.829 359.355L7.60965 297.326C22.3382 293.378 33.9379 281.776 37.8851 267.044L99.899 35.5492C103.846 20.8171 99.5989 4.96625 88.8176 -5.81773L-80.6074 -175.283C-88.7247 -183.403 -99.7171 -187.817 -110.938 -187.817Z" fill="url(#paint15_linear_19_1194)"/>
<path d="M-243.407 345.717C-247.815 345.717 -252.215 345.028 -256.435 343.657C-263.46 341.373 -269.786 337.263 -274.728 331.773L-427.419 162.151C-432.362 156.66 -435.787 149.938 -437.323 142.711C-438.858 135.484 -438.463 127.949 -436.18 120.923L-365.664 -96.1531C-363.381 -103.179 -359.274 -109.507 -353.783 -114.451C-348.294 -119.394 -341.573 -122.821 -334.348 -124.356L-111.141 -171.813C-103.916 -173.348 -96.3835 -172.954 -89.3588 -170.67C-82.3342 -168.386 -76.0077 -164.278 -71.0656 -158.786L81.6254 10.8356C86.5675 16.3263 89.9932 23.0489 91.5285 30.276C93.0638 37.503 92.6692 45.0372 90.386 52.0636L19.8704 269.14C17.5872 276.166 13.4788 282.494 7.98944 287.437C2.50012 292.381 -4.22095 295.807 -11.4463 297.343L-234.653 344.799C-237.54 345.414 -240.475 345.719 -243.408 345.719L-243.407 345.717ZM-102.432 -171.365C-105.238 -171.365 -108.06 -171.075 -110.86 -170.479L-334.066 -123.023C-348.27 -120.003 -359.882 -109.545 -364.369 -95.731L-434.885 121.345C-439.372 135.159 -436.123 150.446 -426.407 161.24L-273.716 330.862C-264 341.656 -249.14 346.486 -234.936 343.466L-11.7293 296.01C2.47433 292.99 14.086 282.532 18.5735 268.718L89.0892 51.6415C93.5767 37.8273 90.3277 22.541 80.6116 11.7467L-72.0794 -157.875C-79.8811 -166.542 -91.fff5 -171.363 -102.432 -171.363V-171.365Z" fill="url(#paint16_linear_19_1194)"/>
<path d="M-250.77 329.575C-255.674 329.575 -260.56 328.678 -265.162 326.91C-271.73 324.388 -277.542 320.165 -281.97 314.697L-418.738 145.762C-423.166 140.293 -426.087 133.729 -427.188 126.78C-428.29 119.829 -427.538 112.684 -425.017 106.114L-347.133 -96.8272C-344.612 -103.397 -340.39 -109.21 -334.923 -113.639C-329.456 -118.067 -322.893 -120.989 -315.945 -122.091L-101.294 -156.097C-94.3444 -157.199 -87.2013 -156.447 -80.633 -153.925C-74.0647 -151.403 -68.2528 -147.18 -63.8253 -141.712L72.9431 27.2238C77.3706 32.6921 80.292 39.2569 81.3932 46.206C82.4945 53.1568 81.7433 60.3015 79.2216 66.8714L1.33823 269.813C-1.18344 276.383 -5.40512 282.196 -10.8722 286.623C-16.3392 291.051 -22.9023 293.973 -29.8498 295.075L-244.502 329.081C-246.581 329.41 -248.677 329.573 -250.77 329.573V329.575ZM-95.0545 -155.289C-97.0598 -155.289 -99.0771 -155.133 -101.089 -154.814L-315.741 -120.808C-329.401 -118.644 -340.965 -109.277 -345.922 -96.3622L-423.806 106.579C-428.762 119.494 -426.434 134.195 -417.731 144.945L-280.963 313.88C-273.542 323.046 -262.347 328.276 -250.742 328.276C-248.737 328.276 -246.72 328.12 -244.708 327.801L-30.0557 293.795C-16.3958 291.631 -4.83218 282.264 0.125366 269.349L78.0087 66.4081C82.9646 53.4931 80.6368 38.7936 71.9327 28.0422L-64.8358 -140.893C-72.2567 -150.059 -83.4514 -155.289 -95.0562 -155.289H-95.0545Z" fill="url(#paint17_linear_19_1194)"/>
<path d="M-257.072 313.853C-262.416 313.853 -267.727 312.733 -272.629 310.549C-278.75 307.822 -284.068 303.516 -288.005 298.095L-409.664 130.606C-413.602 125.184 -416.054 118.796 -416.753 112.13C-417.453 105.466 -416.383 98.7057 -413.659 92.5836L-329.473 -96.5453C-326.747 -102.667 -322.442 -107.986 -317.023 -111.924C-311.602 -115.864 -305.215 -118.316 -298.551 -119.016L-92.7061 -140.656C-86.0434 -141.356 -79.2846 -140.285 -73.164 -137.56C-67.0434 -134.834 -61.7256 -130.527 -57.7887 -125.107L63.8704 42.3819C67.809 47.804 70.2603 54.192 70.9602 60.858C71.6601 67.5223 70.5897 74.2826 67.8656 80.4047L-16.3203 269.534C-19.0461 275.656 -23.35 280.975 -28.7707 284.913C-34.1914 288.852 -40.5779 291.304 -47.2423 292.004L-253.087 313.644C-254.413 313.783 -255.744 313.853 -257.072 313.853ZM-92.5774 -139.429L-298.422 -117.789C-311.521 -116.411 -322.987 -108.079 -328.344 -96.0442L-412.53 93.0847C-417.887 105.119 -416.405 119.218 -408.664 129.877L-287.004 297.366C-280.021 306.98 -268.8 312.613 -257.055 312.615C-255.779 312.615 -254.499 312.548 -253.216 312.414L-47.371 290.774C-34.2721 289.396 -22.8062 281.064 -17.4489 269.029L66.7368 79.9003C72.0941 67.8654 70.6119 53.7665 62.8703 43.1078L-58.7888 -124.381C-66.5305 -135.04 -79.4767 -140.805 -92.5774 -139.429Z" fill="url(#paint18_linear_19_1194)"/>
<path d="M-262.381 298.582C-268.114 298.582 -273.794 297.223 -278.914 294.613C-284.599 291.715 -289.442 287.355 -292.917 282.002L-400.278 116.643C-403.754 111.289 -405.768 105.092 -406.101 98.7173C-406.435 92.343 -405.08 85.9687 -402.183 80.2825L-312.691 -95.396C-309.794 -101.082 -305.435 -105.926 -300.083 -109.402C-294.731 -112.879 -288.534 -114.893 -282.162 -115.226L-85.309 -125.545C-78.9362 -125.878 -72.5634 -124.524 -66.8786 -121.626C-61.1937 -118.728 -56.351 -114.368 -52.8756 -109.015L54.4854 56.345C57.9609 61.6983 59.9748 67.8959 60.3076 74.2702C60.6421 80.6445 59.2869 87.0188 56.3896 92.7051L-33.102 268.384C-35.9993 274.07 -40.3582 278.914 -45.7103 282.39C-51.0624 285.866 -57.2585 287.88 -63.6313 288.213L-260.484 298.532C-261.117 298.565 -261.75 298.582 -262.381 298.582ZM-83.4186 -124.419C-84.0276 -124.419 -84.6366 -124.404 -85.249 -124.371L-282.102 -114.052C-294.629 -113.395 -305.948 -106.043 -311.643 -94.8624L-401.134 80.8161C-406.83 91.9964 -406.123 105.478 -399.29 116.001L-291.929 281.36C-285.431 291.369 -274.233 297.403 -262.374 297.403C-261.765 297.403 -261.156 297.388 -260.544 297.355L-63.6913 287.036C-51.1636 286.379 -39.8454 279.027 -34.1502 267.846L55.3414 92.168C61.0366 80.9877 60.3298 67.5064 53.4973 56.9832L-53.8637 -108.376C-60.3618 -118.385 -71.5599 -124.419 -83.4186 -124.419Z" fill="url(#paint19_linear_19_1194)"/>
<path d="M-79.0284 283.793H-266.764C-272.841 283.793 -278.835 282.187 -284.098 279.147C-289.361 276.108 -293.749 271.719 -296.787 266.455L-390.654 103.832C-393.692 98.5678 -395.3 92.5727 -395.3 86.4935C-395.3 80.4143 -393.694 74.4192 -390.654 69.1551L-296.787 -93.4677C-293.749 -98.7319 -289.361 -103.121 -284.098 -106.16C-278.835 -109.198 -272.841 -110.806 -266.764 -110.806H-79.0284C-72.9507 -110.806 -66.957 -109.2 -61.6941 -106.16C-56.4312 -103.121 -52.0431 -98.7319 -49.0051 -93.4677L44.8625 69.1551C47.9005 74.4192 49.5078 80.4143 49.5078 86.4935C49.5078 92.5727 47.9022 98.5678 44.8625 103.832L-49.0051 266.455C-52.0431 271.719 -56.4312 276.108 -61.6941 279.147C-66.957 282.185 -72.9507 283.793 -79.0284 283.793ZM-266.764 -109.684C-278.71 -109.684 -289.843 -103.255 -295.816 -92.9066L-389.684 69.7161C-395.657 80.0643 -395.657 92.9227 -389.684 103.271L-295.816 265.894C-289.843 276.242 -278.71 282.671 -266.764 282.671H-79.0284C-67.0822 282.671 -55.9491 276.242 -49.976 265.894L43.8915 103.271C49.8646 92.9227 49.8646 80.0643 43.8915 69.7161L-49.976 -92.9066C-55.9491 -103.255 -67.0822 -109.684 -79.0284 -109.684H-266.764Z" fill="url(#paint20_linear_19_1194)"/>
<path d="M-91.7312 278.866C-92.3041 278.866 -92.8788 278.85 -93.4517 278.821L-272.003 269.461C-277.782 269.157 -283.403 267.332 -288.258 264.178C-293.113 261.024 -297.067 256.632 -299.695 251.474L-380.866 92.1286C-383.494 86.9708 -384.723 81.1885 -384.419 75.4079C-384.115 69.6272 -382.29 64.0045 -379.137 59.1487L-281.758 -90.8388C-278.605 -95.6946 -274.214 -99.6495 -269.057 -102.278C-263.901 -104.907 -258.12 -106.135 -252.339 -105.832L-73.7879 -96.4718C-68.0087 -96.1681 -62.3873 -94.3425 -57.5327 -91.1888C-52.678 -88.0351 -48.7239 -83.6426 -46.0959 -78.4848L35.0759 80.8607C37.7039 86.0185 38.9322 91.8009 38.6285 97.5815C38.3249 103.362 36.4997 108.985 33.3467 113.841L-64.0323 263.828C-67.1853 268.684 -71.5767 272.639 -76.7333 275.268C-81.3786 277.635 -86.5301 278.867 -91.7295 278.867L-91.7312 278.866ZM-254.056 -104.809C-264.812 -104.809 -274.969 -99.3373 -280.863 -90.2571L-378.242 59.7303C-384.438 69.2755 -385.08 81.5042 -379.914 91.643L-298.743 250.989C-293.577 261.129 -283.309 267.799 -271.948 268.394L-93.3969 277.754C-92.8428 277.783 -92.2887 277.797 -91.7363 277.797C-80.9807 277.797 -70.8237 272.325 -64.9295 263.245L32.4496 113.257C38.6457 103.712 39.2872 91.4834 34.1221 81.3446L-47.0497 -78.fff9C-52.2148 -88.1415 -62.4833 -94.8109 -73.8445 -95.4063L-252.395 -104.766C-252.95 -104.795 -253.504 -104.809 -254.056 -104.809Z" fill="url(#paint21_linear_19_1194)"/>
<path d="M-103.645 273.544C-104.738 273.544 -105.832 273.487 -106.923 273.372L-276.273 255.569C-281.755 254.992 -287.01 252.974 -291.47 249.735C-295.93 246.494 -299.472 242.118 -301.712 237.082L-370.972 81.4859C-373.214 76.45 -374.095 70.889 -373.518 65.4052C-372.942 59.9214 -370.924 54.6658 -367.686 50.2047L-267.596 -87.5884C-264.356 -92.0495 -259.982 -95.5927 -254.947 -97.8336C-249.91 -100.076 -244.352 -100.956 -238.87 -100.38L-69.5205 -82.5764C-64.038 -81.9999 -58.7836 -79.9821 -54.3235 -76.7426C-49.8635 -73.5014 -46.3211 -69.1261 -44.0808 -64.0901L25.1792 91.5063C27.4212 96.5423 28.3012 102.103 27.7249 107.587C27.1485 113.071 25.1311 118.326 21.8924 122.788L-78.197 260.581C-81.4375 265.042 -85.8118 268.585 -90.8465 270.826C-94.8795 272.622 -99.2487 273.544 -103.645 273.544ZM-242.134 -99.5374C-251.797 -99.5374 -261.028 -94.903 -266.775 -86.993L-366.864 50.8C-373.233 59.5679 -374.451 71.1669 -370.044 81.069L-300.784 236.665C-296.378 246.567 -286.944 253.422 -276.168 254.555L-106.819 272.358C-96.0408 273.491 -85.3915 268.748 -79.0222 259.978L21.0673 122.185C27.4366 113.416 28.6546 101.818 24.2477 91.9164L-45.0123 -63.68C-49.4192 -73.5821 -58.8523 -80.4368 -69.6285 -81.5693L-238.978 -99.3727C-240.033 -99.4842 -241.088 -99.5374 -242.136 -99.5374H-242.134Z" fill="url(#paint22_linear_19_1194)"/>
<path d="M-114.787 267.886C-116.349 267.886 -117.912 267.764 -119.465 267.519L-279.642 242.144C-284.827 241.322 -289.723 239.141 -293.804 235.836C-297.883 232.532 -301.035 228.194 -302.916 223.292L-361.035 71.8546C-362.917 66.9525 -363.476 61.6197 -362.656 56.4345C-361.834 51.2475 -359.654 46.3505 -356.35 42.2686L-254.291 -83.7933C-250.987 -87.8736 -246.651 -91.0255 -241.75 -92.9078C-236.849 -94.7901 -231.517 -95.3494 -226.333 -94.5293L-66.1563 -69.1539C-60.9706 -68.332 -56.0748 -66.1512 -51.9938 -62.8465C-47.9146 -59.5418 -44.7633 -55.2042 -42.8815 -50.3021L15.2368 101.135C17.1187 106.037 17.6779 111.37 16.8579 116.555C16.0362 121.742 13.8559 126.639 10.552 130.721L-91.5067 256.783C-94.8106 260.863 -99.1472 264.015 -104.048 265.898C-107.482 267.217 -111.129 267.886 -114.788 267.886H-114.787ZM-360.127 71.5063L-302.009 222.944C-298.311 232.581 -289.68 239.57 -279.487 241.185L-119.31 266.56C-109.117 268.175 -98.7509 264.194 -92.2563 256.172L9.8024 130.11C16.297 122.089 18.0347 111.118 14.3363 101.482L-43.7821 -49.9555C-47.4806 -59.5933 -56.1108 -66.5819 -66.3038 -68.1965L-226.481 -93.5718C-236.674 -95.1864 -247.04 -91.2057 -253.535 -83.1842L-355.593 42.8777C-362.088 50.8992 -363.826 61.8702 -360.127 71.5063Z" fill="url(#paint23_linear_19_1194)"/>
<path d="M-125.172 261.947C-127.156 261.947 -129.145 261.74 -131.098 261.325L-282.174 229.204C-287.064 228.165 -291.613 225.846 -295.329 222.501C-299.045 219.155 -301.825 214.872 -303.369 210.116L-351.097 63.1894C-352.643 58.4331 -352.909 53.3337 -351.869 48.4418C-350.83 43.55 -348.512 38.9997 -345.167 35.2832L-241.82 -79.5229C-238.475 -83.2394 -234.193 -86.0207 -229.438 -87.5667C-224.683 -89.1126 -219.585 -89.3786 -214.694 -88.3388L-63.619 -56.2185C-58.7284 -55.1787 -54.1791 -52.8606 -50.4635 -49.5147C-46.7479 -46.1689 -43.9672 -41.8862 -42.4216 -37.1299L5.30643 109.796C6.85202 114.553 7.11792 119.652 6.07837 124.544C5.03882 129.436 2.72125 133.986 -0.62381 137.703L-103.971 252.509C-107.316 256.225 -111.598 259.007 -116.353 260.551C-119.207 261.479 -122.187 261.946 -125.17 261.946L-125.172 261.947ZM-220.59 -88.0334C-228.328 -88.0334 -235.854 -84.7699 -241.134 -78.9035L-344.481 35.9026C-351.058 43.2086 -353.257 53.555 -350.219 62.9046L-302.491 209.831C-299.453 219.18 -291.595 226.258 -281.981 228.303L-130.906 260.424C-121.291 262.469 -111.234 259.199 -104.659 251.893L-1.31168 137.087C5.26523 129.781 7.46445 119.434 4.42645 110.085L-43.3016 -36.8417C-46.3396 -46.1912 -54.198 -53.269 -63.8112 -55.3143L-214.886 -87.4345C-216.78 -87.8378 -218.693 -88.0334 -220.59 -88.0334Z" fill="url(#paint24_linear_19_1194)"/>
</g>
<defs>
<linearGradient id="paint0_linear_19_1194" x1="-172.897" y1="609.988" x2="-172.897" y2="-437" gradientUnits="userSpaceOnUse">
<stop stop-color="white"/>
<stop offset="0.55" stop-color="#fff"/>
<stop offset="1" stop-color="#fff"/>
</linearGradient>
<linearGradient id="paint1_linear_19_1194" x1="-172.896" y1="596.912" x2="-172.896" y2="-423.925" gradientUnits="userSpaceOnUse">
<stop stop-color="white"/>
<stop offset="0.55" stop-color="#fff"/>
<stop offset="1" stop-color="#fff"/>
</linearGradient>
<linearGradient id="paint2_linear_19_1194" x1="-172.896" y1="582.792" x2="-172.896" y2="-409.804" gradientUnits="userSpaceOnUse">
<stop stop-color="white"/>
<stop offset="0.55" stop-color="#fff"/>
<stop offset="1" stop-color="#fff"/>
</linearGradient>
<linearGradient id="paint3_linear_19_1194" x1="-172.896" y1="567.78" x2="-172.896" y2="-394.793" gradientUnits="userSpaceOnUse">
<stop stop-color="white"/>
<stop offset="0.55" stop-color="#fff"/>
<stop offset="1" stop-color="#fff"/>
</linearGradient>
<linearGradient id="paint4_linear_19_1194" x1="-172.896" y1="552.024" x2="-172.896" y2="-379.037" gradientUnits="userSpaceOnUse">
<stop stop-color="white"/>
<stop offset="0.55" stop-color="#fff"/>
<stop offset="1" stop-color="#fff"/>
</linearGradient>
<linearGradient id="paint5_linear_19_1194" x1="-172.897" y1="535.66" x2="-172.897" y2="-362.674" gradientUnits="userSpaceOnUse">
<stop stop-color="white"/>
<stop offset="0.55" stop-color="#fff"/>
<stop offset="1" stop-color="#fff"/>
</linearGradient>
<linearGradient id="paint6_linear_19_1194" x1="-172.896" y1="518.815" x2="-172.896" y2="-345.828" gradientUnits="userSpaceOnUse">
<stop stop-color="white"/>
<stop offset="0.55" stop-color="#fff"/>
<stop offset="1" stop-color="#fff"/>
</linearGradient>
<linearGradient id="paint7_linear_19_1194" x1="-172.897" y1="501.608" x2="-172.897" y2="-328.621" gradientUnits="userSpaceOnUse">
<stop stop-color="white"/>
<stop offset="0.55" stop-color="#fff"/>
<stop offset="1" stop-color="#fff"/>
</linearGradient>
<linearGradient id="paint8_linear_19_1194" x1="-172.896" y1="484.146" x2="-172.896" y2="-311.16" gradientUnits="userSpaceOnUse">
<stop stop-color="white"/>
<stop offset="0.55" stop-color="#fff"/>
<stop offset="1" stop-color="#fff"/>
</linearGradient>
<linearGradient id="paint9_linear_19_1194" x1="-172.897" y1="466.532" x2="-172.897" y2="-293.542" gradientUnits="userSpaceOnUse">
<stop stop-color="white"/>
<stop offset="0.55" stop-color="#fff"/>
<stop offset="1" stop-color="#fff"/>
</linearGradient>
<linearGradient id="paint10_linear_19_1194" x1="-172.896" y1="448.853" x2="-172.896" y2="-275.865" gradientUnits="userSpaceOnUse">
<stop stop-color="white"/>
<stop offset="0.55" stop-color="#fff"/>
<stop offset="1" stop-color="#fff"/>
</linearGradient>
<linearGradient id="paint11_linear_19_1194" x1="-172.897" y1="431.199" x2="-172.897" y2="-258.211" gradientUnits="userSpaceOnUse">
<stop stop-color="white"/>
<stop offset="0.55" stop-color="#fff"/>
<stop offset="1" stop-color="#fff"/>
</linearGradient>
<linearGradient id="paint12_linear_19_1194" x1="-172.896" y1="413.643" x2="-172.896" y2="-240.656" gradientUnits="userSpaceOnUse">
<stop stop-color="white"/>
<stop offset="0.55" stop-color="#fff"/>
<stop offset="1" stop-color="#fff"/>
</linearGradient>
<linearGradient id="paint13_linear_19_1194" x1="-172.896" y1="396.258" x2="-172.896" y2="-223.271" gradientUnits="userSpaceOnUse">
<stop stop-color="white"/>
<stop offset="0.55" stop-color="#fff"/>
<stop offset="1" stop-color="#fff"/>
</linearGradient>
<linearGradient id="paint14_linear_19_1194" x1="-172.896" y1="379.107" x2="-172.896" y2="-206.118" gradientUnits="userSpaceOnUse">
<stop stop-color="white"/>
<stop offset="0.55" stop-color="#fff"/>
<stop offset="1" stop-color="#fff"/>
</linearGradient>
<linearGradient id="paint15_linear_19_1194" x1="-172.897" y1="362.243" x2="-172.897" y2="-189.255" gradientUnits="userSpaceOnUse">
<stop stop-color="white"/>
<stop offset="0.55" stop-color="#fff"/>
<stop offset="1" stop-color="#fff"/>
</linearGradient>
<linearGradient id="paint16_linear_19_1194" x1="-172.896" y1="345.717" x2="-172.896" y2="-172.732" gradientUnits="userSpaceOnUse">
<stop stop-color="white"/>
<stop offset="0.55" stop-color="#fff"/>
<stop offset="1" stop-color="#fff"/>
</linearGradient>
<linearGradient id="paint17_linear_19_1194" x1="-172.897" y1="329.575" x2="-172.897" y2="-156.589" gradientUnits="userSpaceOnUse">
<stop stop-color="white"/>
<stop offset="0.55" stop-color="#fff"/>
<stop offset="1" stop-color="#fff"/>
</linearGradient>
<linearGradient id="paint18_linear_19_1194" x1="-172.897" y1="313.853" x2="-172.897" y2="-140.865" gradientUnits="userSpaceOnUse">
<stop stop-color="white"/>
<stop offset="0.55" stop-color="#fff"/>
<stop offset="1" stop-color="#fff"/>
</linearGradient>
<linearGradient id="paint19_linear_19_1194" x1="-172.896" y1="298.582" x2="-172.896" y2="-125.596" gradientUnits="userSpaceOnUse">
<stop stop-color="white"/>
<stop offset="0.55" stop-color="#fff"/>
<stop offset="1" stop-color="#fff"/>
</linearGradient>
<linearGradient id="paint20_linear_19_1194" x1="-172.896" y1="283.793" x2="-172.896" y2="-110.806" gradientUnits="userSpaceOnUse">
<stop stop-color="white"/>
<stop offset="0.55" stop-color="#fff"/>
<stop offset="1" stop-color="#fff"/>
</linearGradient>
<linearGradient id="paint21_linear_19_1194" x1="-172.896" y1="278.866" x2="-172.896" y2="-105.878" gradientUnits="userSpaceOnUse">
<stop stop-color="white"/>
<stop offset="0.55" stop-color="#fff"/>
<stop offset="1" stop-color="#fff"/>
</linearGradient>
<linearGradient id="paint22_linear_19_1194" x1="-172.897" y1="273.544" x2="-172.897" y2="-100.555" gradientUnits="userSpaceOnUse">
<stop stop-color="white"/>
<stop offset="0.55" stop-color="#fff"/>
<stop offset="1" stop-color="#fff"/>
</linearGradient>
<linearGradient id="paint23_linear_19_1194" x1="-172.896" y1="267.886" x2="-172.896" y2="-94.8982" gradientUnits="userSpaceOnUse">
<stop stop-color="white"/>
<stop offset="0.55" stop-color="#fff"/>
<stop offset="1" stop-color="#fff"/>
</linearGradient>
<linearGradient id="paint24_linear_19_1194" x1="-172.896" y1="261.947" x2="-172.896" y2="-88.9599" gradientUnits="userSpaceOnUse">
<stop stop-color="white"/>
<stop offset="0.55" stop-color="#fff"/>
<stop offset="1" stop-color="#fff"/>
</linearGradient>
</defs>
</svg>
